<svg width="70" height="70" viewBox="0 0 70 70" fill="none" xmlns="http://www.w3.org/2000/svg">
<g clip-path="url(#clip0_7658_2208)">
<path d="M25.1438 26.1975C25.1438 25.5935 25.6335 25.1038 26.2375 25.1038H43.5321C44.1361 25.1038 44.6258 25.5935 44.6258 26.1975C44.6258 26.8015 44.1361 27.2913 43.5321 27.2913H26.2375C25.6335 27.2913 25.1438 26.8015 25.1438 26.1975ZM26.2375 21.1813H43.5321C44.1361 21.1813 44.6258 20.6916 44.6258 20.0875C44.6258 19.4835 44.1361 18.9938 43.5321 18.9938H26.2375C25.6335 18.9938 25.1438 19.4835 25.1438 20.0875C25.1438 20.6916 25.6335 21.1813 26.2375 21.1813ZM13.046 22.3117C12.6191 21.8848 11.9265 21.8846 11.4993 22.3118C11.0721 22.7389 11.0721 23.4314 11.4994 23.8585L13.9888 26.3478C14.2018 26.5608 14.4816 26.6681 14.7622 26.6681C15.025 26.6681 15.2881 26.574 15.4971 26.3843L21.5432 20.8973C21.9905 20.4914 22.0241 19.7997 21.6181 19.3524C21.212 18.9051 20.5204 18.8714 20.0732 19.2775L14.7987 24.0641L13.046 22.3117ZM28.0834 3.96361C27.3283 3.96361 26.7162 4.5757 26.7162 5.3308C26.7162 6.0859 27.3283 6.69799 28.0834 6.69799C28.8385 6.69799 29.4506 6.0859 29.4506 5.3308C29.4506 4.5757 28.8385 3.96361 28.0834 3.96361ZM20.073 29.6684L14.7986 34.455L13.0461 32.7024C12.6188 32.2755 11.9265 32.2755 11.4993 32.7024C11.0721 33.1297 11.0721 33.822 11.4993 34.2493L13.9886 36.7387C14.2018 36.9517 14.4816 37.059 14.7622 37.059C15.025 37.059 15.2881 36.9649 15.4971 36.7752L21.5432 31.2882C21.9905 30.8823 22.0241 30.1906 21.6181 29.7433C21.2119 29.2958 20.5202 29.2623 20.073 29.6684ZM20.073 40.059L14.7986 44.8457L13.046 43.0932C12.6191 42.6664 11.9265 42.6661 11.4993 43.0933C11.0721 43.5204 11.0721 44.2129 11.4994 44.64L13.9888 47.1293C14.2018 47.3423 14.4816 47.4496 14.7622 47.4496C15.025 47.4496 15.2881 47.3555 15.4971 47.1658L21.5432 41.6788C21.9905 41.2729 22.0241 40.5813 21.6181 40.1339C21.212 39.6866 20.5202 39.6531 20.073 40.059ZM20.073 50.4496L14.7986 55.2363L13.046 53.4838C12.6191 53.057 11.9265 53.0567 11.4993 53.484C11.0721 53.9111 11.0721 54.6036 11.4994 55.0307L13.9888 57.5199C14.2018 57.7329 14.4816 57.8402 14.7622 57.8402C15.025 57.8402 15.2881 57.7462 15.4971 57.5564L21.5432 52.0695C21.9905 51.6636 22.0241 50.9719 21.6181 50.5246C21.2119 50.0771 20.5202 50.0437 20.073 50.4496ZM26.2375 57.8402H43.5321C44.1361 57.8402 44.6258 57.3505 44.6258 56.7465C44.6258 56.1425 44.1361 55.6527 43.5321 55.6527H26.2375C25.6335 55.6527 25.1438 56.1425 25.1438 56.7465C25.1438 57.3505 25.6335 57.8402 26.2375 57.8402ZM55.6278 57.5869V65.866C55.6278 68.1455 53.7734 70 51.4937 70H4.67303C2.39352 70 0.539062 68.1455 0.539062 65.866V9.92414C0.539062 7.64463 2.39352 5.79018 4.67303 5.79018H15.2845V5.04629C15.2845 4.44227 15.7742 3.95254 16.3782 3.95254H22.2601C23.1923 1.58744 25.4763 0 28.0832 0C30.6902 0 32.9744 1.58744 33.9065 3.9524H39.7884C40.3924 3.9524 40.8822 4.44213 40.8822 5.04615V5.79004H51.4936C53.7732 5.79004 55.6277 7.64449 55.6277 9.924V25.3723C63.448 26.5623 69.4595 33.3319 69.4595 41.4795C69.4597 49.6273 63.4481 56.3969 55.6278 57.5869ZM40.8822 7.97768V10.0197H50.3046C50.9086 10.0197 51.3983 10.5094 51.3983 11.1135V25.2831C51.9794 25.2201 52.5692 25.1869 53.1668 25.1869C53.2582 25.1869 53.3491 25.1888 53.4403 25.1903V9.92414C53.4403 8.85076 52.567 7.97768 51.4937 7.97768H40.8822ZM17.472 11.8572H38.6947V6.1399H33.1075C32.6023 6.1399 32.1628 5.79387 32.0443 5.30264C31.6018 3.46842 29.9731 2.1875 28.0832 2.1875C26.1935 2.1875 24.5648 3.46842 24.1224 5.30264C24.0038 5.79387 23.5643 6.1399 23.0591 6.1399H17.472V11.8572ZM16.3782 14.0447C15.7742 14.0447 15.2845 13.555 15.2845 12.951V12.2072H6.95582V63.5831H49.2108V57.286C45.7377 56.4164 42.7033 54.4294 40.5126 51.7304H26.2375C25.6335 51.7304 25.1438 51.2407 25.1438 50.6367C25.1438 50.0326 25.6335 49.5429 26.2375 49.5429H39.0131C38.3164 48.3247 37.7728 47.0086 37.4077 45.6206H26.2375C25.6335 45.6206 25.1438 45.1309 25.1438 44.5268C25.1438 43.9228 25.6335 43.4331 26.2375 43.4331H36.9913C36.9143 42.7924 36.8738 42.1407 36.8738 41.4796C36.8738 40.8133 36.915 40.1565 36.9932 39.5109H26.2377C25.6337 39.5109 25.1439 39.0212 25.1439 38.4171C25.1439 37.8131 25.6337 37.3234 26.2377 37.3234H37.412C37.7785 35.9353 38.3235 34.619 39.0217 33.4012H26.2377C25.6337 33.4012 25.1439 32.9115 25.1439 32.3075C25.1439 31.7034 25.6337 31.2137 26.2377 31.2137H40.5252C42.7149 28.5225 45.7444 26.5415 49.2109 25.6736V12.2071H40.8823V12.9508C40.8823 13.5548 40.3926 14.0446 39.7886 14.0446H16.3782V14.0447ZM53.4403 57.7691C53.3491 57.7706 53.2582 57.7726 53.1668 57.7726C52.5692 57.7726 51.9794 57.7392 51.3983 57.6763V64.6767C51.3983 65.2807 50.9086 65.7705 50.3046 65.7705H5.86207C5.25805 65.7705 4.76832 65.2807 4.76832 64.6767V11.1133C4.76832 10.5093 5.25805 10.0196 5.86207 10.0196H15.2845V7.97768H4.67303C3.59965 7.97768 2.72656 8.8509 2.72656 9.92414V65.866C2.72656 66.9394 3.59979 67.8125 4.67303 67.8125H51.4937C52.5671 67.8125 53.4403 66.9393 53.4403 65.866V57.7691ZM67.2722 41.4796C67.2722 33.7019 60.9445 27.3742 53.1668 27.3742C45.389 27.3742 39.0613 33.7019 39.0613 41.4796C39.0613 49.2576 45.389 55.5852 53.1668 55.5852C60.9445 55.5852 67.2722 49.2574 67.2722 41.4796ZM62.2356 35.4095C63.3519 36.5195 63.357 38.3309 62.2468 39.4473C61.0584 40.6476 59.8701 41.8529 58.6817 43.0582C56.5369 45.2333 54.3193 47.4826 52.1237 49.6783C51.5836 50.2184 50.8654 50.5159 50.1012 50.5159C49.3371 50.5159 48.6189 50.2184 48.0786 49.6783L42.4503 44.05C41.9102 43.5098 41.6127 42.7915 41.6127 42.0275C41.6127 41.2634 41.9102 40.5452 42.4503 40.0049C43.5657 38.8898 45.3802 38.8898 46.4956 40.0049L50.0946 43.6041L58.1957 35.4221C59.3076 34.3042 61.1194 34.2992 62.2356 35.4095ZM60.6931 36.9605C60.4319 36.7009 60.0083 36.7019 59.7484 36.9631L50.8758 45.9245C50.6711 46.1314 50.3923 46.248 50.1012 46.2487C50.1004 46.2487 50.0995 46.2487 50.0985 46.2487C49.8084 46.2487 49.5303 46.1334 49.3251 45.9282L44.9487 41.5517C44.8176 41.4206 44.6452 41.3551 44.4731 41.3551C44.3007 41.3551 44.1284 41.4206 43.9974 41.5518C43.8703 41.6788 43.8004 41.8478 43.8004 42.0275C43.8004 42.2071 43.8704 42.3761 43.9973 42.5031H43.9974L49.6257 48.1314C49.7528 48.2586 49.9217 48.3284 50.1014 48.3284C50.281 48.3284 50.45 48.2584 50.577 48.1316C52.7673 45.9413 54.9822 43.6949 57.1242 41.5224C58.3137 40.316 59.503 39.1098 60.6942 37.9066C60.9554 37.6439 60.9541 37.2202 60.6931 36.9605Z" fill="white"/>
</g>
<defs>
<clipPath id="clip0_7658_2208">
<rect width="70" height="70" fill="white"/>
</clipPath>
</defs>
</svg>
