<svg width="70" height="70" viewBox="0 0 70 70" fill="none" xmlns="http://www.w3.org/2000/svg">
<g clip-path="url(#clip0_7658_2201)">
<path d="M25.763 43.1045C23.176 43.1045 21.0714 45.2093 21.0714 47.7963C21.0714 50.3833 23.1762 52.4879 25.763 52.4879C28.3499 52.4879 30.4546 50.3831 30.4546 47.7963C30.4546 45.2093 28.3499 43.1045 25.763 43.1045ZM25.763 50.3005C24.3821 50.3005 23.2589 49.1771 23.2589 47.7964C23.2589 46.4154 24.3823 45.2921 25.763 45.2921C27.1437 45.2921 28.2671 46.4155 28.2671 47.7964C28.2671 49.1771 27.1437 50.3005 25.763 50.3005ZM18.0123 47.7965C18.0123 48.4006 17.5226 48.8903 16.9185 48.8903H12.6783C12.0743 48.8903 11.5846 48.4006 11.5846 47.7965C11.5846 47.1925 12.0743 46.7028 12.6783 46.7028H16.9184C17.5226 46.7028 18.0123 47.1925 18.0123 47.7965ZM39.9412 47.7965C39.9412 48.4006 39.4514 48.8903 38.8474 48.8903H34.6073C34.0033 48.8903 33.5136 48.4006 33.5136 47.7965C33.5136 47.1925 34.0033 46.7028 34.6073 46.7028H38.8474C39.4514 46.7028 39.9412 47.1925 39.9412 47.7965ZM69.8102 49.7312C69.4758 49.0086 68.7735 48.5597 67.9772 48.5597H63.1336V25.4723C63.1336 23.8481 61.8122 22.5267 60.188 22.5267H50.2705C48.6463 22.5267 47.3249 23.8481 47.3249 25.4723V26.5736H44.6831C45.3428 24.693 45.7029 22.6728 45.7029 20.5698C45.7029 10.5434 37.5457 2.38623 27.5193 2.38623C17.4929 2.38623 9.3357 10.5434 9.3357 20.5698C9.3357 22.6728 9.69582 24.693 10.3555 26.5736H9.17465C8.57063 26.5736 8.0809 27.0633 8.0809 27.6673V30.71H5.1342C4.53018 30.71 4.04045 31.1997 4.04045 31.8037V34.8464H1.09375C0.489727 34.8464 0 35.3361 0 35.9402V59.6524C0 60.2564 0.489727 60.7461 1.09375 60.7461H48.4638L53.6896 66.9011C54.0798 67.3606 54.6265 67.6136 55.2292 67.6136C55.8318 67.6136 56.3786 67.3606 56.7688 66.9011L69.517 51.8865C70.0321 51.2795 70.1445 50.4535 69.8102 49.7312ZM47.3248 34.8464H38.7684C39.5203 34.2526 40.2238 33.6005 40.8732 32.8975H47.3248V34.8464ZM47.3248 28.7611V30.71H42.6059C43.0262 30.0867 43.4085 29.4358 43.7503 28.7611H47.3248ZM27.5193 4.57387C36.3396 4.57387 43.5154 11.7497 43.5154 20.57C43.5154 29.3902 36.3396 36.5661 27.5193 36.5661C18.699 36.5661 11.5232 29.3902 11.5232 20.57C11.5232 11.7497 18.699 4.57387 27.5193 4.57387ZM10.2683 28.7611H11.2882C11.6301 29.4358 12.0122 30.0867 12.4325 30.71H10.2683V28.7611ZM6.22795 32.8975H14.1653C14.8147 33.6005 15.5183 34.2526 16.2701 34.8464H6.22795V32.8975ZM2.1875 58.5586V37.0339H19.7926C19.7933 37.0321 19.7948 37.0309 19.7956 37.0291C22.1413 38.1342 24.7591 38.7536 27.5193 38.7536C30.2798 38.7536 32.8979 38.1341 35.2438 37.0287C35.2442 37.0306 35.2454 37.032 35.2458 37.0339H47.3248V48.5597H46.3151V44.1541C46.3151 43.5501 45.8254 43.0603 45.2214 43.0603C44.2736 43.0603 43.5027 42.2594 43.5027 41.2749C43.5027 40.6709 43.013 40.1812 42.4089 40.1812H9.11695C8.51293 40.1812 8.0232 40.6709 8.0232 41.2749C8.0232 42.2593 7.25225 43.0603 6.30451 43.0603C5.70049 43.0603 5.21076 43.5501 5.21076 44.1541V51.4387C5.21076 52.0428 5.70049 52.5325 6.30451 52.5325C7.25225 52.5325 8.0232 53.3334 8.0232 54.3179C8.0232 54.9219 8.51293 55.4116 9.11695 55.4116H42.4089C42.8474 55.4116 43.2243 55.1531 43.3988 54.7808L46.6065 58.5588H2.1875V58.5586ZM40.6483 49.7312C40.314 50.4537 40.4262 51.2796 40.9417 51.8866L41.6482 52.7188C41.5767 52.8834 41.5129 53.0512 41.4643 53.2241H10.0602C9.69186 51.9174 8.68041 50.8845 7.39826 50.5036V45.0894C8.68041 44.7085 9.69172 43.6754 10.0602 42.3688H41.4657C41.834 43.6756 42.8455 44.7085 44.1276 45.0894V48.5597H42.4811C41.685 48.5597 40.9825 49.0086 40.6483 49.7312ZM55.2292 65.3345L42.8438 50.7472H48.4187C49.0227 50.7472 49.5124 50.2575 49.5124 49.6535V25.4723C49.5124 25.0542 49.8526 24.7142 50.2705 24.7142H60.188C60.6061 24.7142 60.9461 25.0542 60.9461 25.4723V49.6535C60.9461 50.2575 61.4358 50.7472 62.0398 50.7472H67.6147L55.2292 65.3345ZM32.9272 22.7195C31.7719 22.7199 30.6858 23.1701 29.8692 23.9872C29.0526 24.8044 28.6032 25.8908 28.6036 27.0462C28.604 28.2016 29.0542 29.2876 29.8714 30.1042C30.6882 30.9204 31.7738 31.3699 32.9286 31.3698H32.9302C34.0856 31.3694 35.1716 30.9192 35.9882 30.102C36.8048 29.2848 37.2544 28.1985 37.2539 27.043C37.2535 25.8876 36.8033 24.8015 35.9862 23.9851C35.1693 23.1687 34.0837 22.7193 32.9288 22.7193C32.9284 22.7195 32.9278 22.7195 32.9272 22.7195ZM35.0666 27.044C35.0667 27.6151 34.8447 28.152 34.4411 28.5558C34.0375 28.9597 33.5007 29.1823 32.9295 29.1824C32.9293 29.1824 32.929 29.1824 32.9287 29.1824C32.3579 29.1824 31.8213 28.9603 31.4177 28.5569C31.0138 28.1533 30.7913 27.6166 30.7911 27.0455C30.791 26.4744 31.013 25.9375 31.4166 25.5337C31.8202 25.1298 32.357 24.9072 32.928 24.9071H32.9288C33.4996 24.9071 34.0363 25.1293 34.44 25.5326C34.8439 25.936 35.0663 26.4728 35.0666 27.044ZM22.1096 18.4205H22.1112C23.2665 18.4201 24.3526 17.9698 25.1692 17.1527C25.9859 16.3355 26.4354 15.2491 26.435 14.0937C26.4342 11.7092 24.494 9.77 22.1097 9.77C22.1093 9.77 22.1087 9.77 22.1082 9.77C19.7233 9.77082 17.7837 11.712 17.7845 14.0967C17.7853 16.4812 19.7252 18.4206 22.1096 18.4205ZM22.1089 11.9575H22.1096C23.288 11.9575 24.2469 12.916 24.2475 14.0946C24.2476 14.6656 24.0254 15.2025 23.6219 15.6064C23.2183 16.0103 22.6815 16.2328 22.1104 16.233C22.1102 16.233 22.1099 16.233 22.1096 16.233C20.9312 16.233 19.9724 15.2744 19.9719 14.0961C19.9716 12.9173 20.9303 11.9579 22.1089 11.9575ZM20.6737 28.3065L32.7846 11.4395C33.1371 10.9489 33.8204 10.8368 34.3111 11.1889C34.8018 11.5412 34.9139 12.2246 34.5617 12.7153L22.4507 29.5823C22.237 29.8798 21.9017 30.0381 21.5614 30.0381C21.3404 30.0381 21.1174 29.9714 20.9244 29.8328C20.4336 29.4805 20.3213 28.797 20.6737 28.3065Z" fill="white"/>
</g>
<defs>
<clipPath id="clip0_7658_2201">
<rect width="70" height="70" fill="white"/>
</clipPath>
</defs>
</svg>
