<svg width="70" height="70" viewBox="0 0 70 70" fill="none" xmlns="http://www.w3.org/2000/svg">
<path d="M65.3573 18.5684L58.4327 11.6437C58.2275 11.4387 57.9494 11.3234 57.6593 11.3234H37.5977C37.3616 11.0969 37.1078 10.9049 36.879 10.7318C36.6001 10.521 36.2838 10.2819 36.1818 10.1051C36.073 9.91684 36.023 9.51653 35.9788 9.16325C35.8949 8.49073 35.7994 7.72866 35.2785 7.10891C34.7544 6.4852 34.0158 6.25879 33.3641 6.05891C33.0265 5.95528 32.6437 5.83797 32.4833 5.70331C32.3212 5.56754 32.1382 5.21002 31.9768 4.89461C31.6667 4.28909 31.3155 3.6029 30.6126 3.19657C29.9114 2.79106 29.1423 2.82948 28.4639 2.86284C28.109 2.8802 27.7066 2.90016 27.5058 2.82702C27.3113 2.75592 27.0196 2.4844 26.7625 2.24487C26.287 1.80231 25.6954 1.2512 24.8896 1.10915C24.097 0.969967 23.3877 1.26815 22.7618 1.53188C22.4322 1.67092 22.0582 1.82829 21.8432 1.82856C21.843 1.82856 21.8429 1.82856 21.8428 1.82856C21.6421 1.82856 21.2795 1.6753 20.9594 1.54008C20.3587 1.28606 19.6106 0.969556 18.7983 1.11352C17.9854 1.25694 17.3911 1.80942 16.9135 2.25348C16.6589 2.49014 16.3703 2.75838 16.1818 2.82688C15.9795 2.9003 15.5745 2.8802 15.2168 2.86229C14.5386 2.82893 13.7699 2.79051 13.073 3.19274C12.3645 3.6018 11.9971 4.32163 11.7019 4.89981C11.5421 5.21317 11.3608 5.56823 11.2021 5.70167C11.0387 5.83907 10.6537 5.95801 10.3142 6.06301C9.66524 6.26358 8.92955 6.49081 8.4092 7.11137C7.88789 7.73358 7.79233 8.49852 7.70811 9.17364C7.66436 9.52528 7.61445 9.92395 7.50877 10.1069C7.40391 10.288 7.08453 10.5293 6.80262 10.7421C6.25861 11.1529 5.64201 11.6184 5.36256 12.3837C5.08529 13.1441 5.25633 13.8928 5.40713 14.5534C5.48643 14.9007 5.57625 15.2941 5.53852 15.508C5.50256 15.7115 5.28873 16.0412 5.09992 16.332C4.68211 16.9754 4.16244 17.7761 4.34072 18.7878C4.45065 19.4114 4.78861 19.9329 5.0868 20.3929C5.29188 20.7091 5.50393 21.0362 5.54289 21.2574C5.58199 21.479 5.49449 21.8591 5.40986 22.2266C5.25893 22.8823 5.08803 23.6252 5.36174 24.3805C5.64188 25.1532 6.28815 25.6418 6.8074 26.0343C7.08645 26.2453 7.40268 26.4843 7.50522 26.6617C7.61377 26.8497 7.66395 27.2503 7.70811 27.6036C7.79219 28.2761 7.88762 29.0383 8.40852 29.6579C8.75701 30.0726 9.20039 30.3112 9.64992 30.4836L5.44582 39.5132C5.27383 39.8826 5.32141 40.3169 5.56928 40.6403C5.81701 40.9636 6.22457 41.1223 6.62557 41.0523L11.5127 40.1983L14.0052 44.4878C14.2017 44.8258 14.5624 45.032 14.9508 45.032C14.9672 45.032 14.9839 45.0315 15.0004 45.0309C15.4076 45.0123 15.7705 44.7692 15.9424 44.3999L20.0586 35.559C20.2987 35.4887 20.529 35.3993 20.7494 35.3078V67.8126C20.7494 68.4166 21.2392 68.9063 21.8432 68.9063H64.5835C65.1875 68.9063 65.6773 68.4166 65.6773 67.8126V19.342C65.6777 19.0518 65.5624 18.7736 65.3573 18.5684ZM58.753 15.0577L61.9435 18.2482H58.753V15.0577ZM8.15053 24.2582C7.89582 24.0657 7.51082 23.7747 7.45545 23.6217C7.40568 23.4844 7.51492 23.0098 7.58014 22.7263C7.70838 22.1693 7.85357 21.5381 7.736 20.871C7.61856 20.2047 7.26623 19.6612 6.95561 19.182C6.77268 18.8998 6.56541 18.5799 6.53383 18.4015C6.50772 18.2534 6.79578 17.8098 6.96777 17.5445C7.27211 17.0758 7.61691 16.5446 7.73162 15.8954C7.84783 15.2377 7.70455 14.6108 7.57822 14.0576C7.50822 13.7518 7.40268 13.2896 7.45463 13.1472C7.50863 12.9996 7.89131 12.7107 8.14465 12.5194C8.59541 12.1793 9.10619 11.7934 9.43678 11.2215C9.76859 10.6477 9.84803 10.011 9.91803 9.4494C9.95727 9.13549 10.0165 8.66081 10.1161 8.542C10.2146 8.42469 10.6703 8.28374 10.9719 8.19063C11.5133 8.02329 12.127 7.8338 12.6354 7.40628C13.1395 6.98245 13.4296 6.41397 13.6857 5.91235C13.8304 5.62907 14.0488 5.20087 14.1869 5.12116C14.3152 5.04706 14.8106 5.07167 15.1066 5.08643C15.6738 5.11419 16.3172 5.14659 16.9413 4.92032C17.5554 4.6976 18.0203 4.26557 18.4301 3.8844C18.6791 3.6528 19.0202 3.33561 19.1854 3.30649C19.3494 3.27737 19.7794 3.45852 20.0928 3.59114C20.6077 3.80879 21.191 4.05544 21.8433 4.05544H21.8463C22.51 4.05448 23.1032 3.80456 23.6267 3.58403C23.8997 3.46905 24.3569 3.27669 24.503 3.30211C24.6603 3.32987 25.0123 3.65772 25.2453 3.87456C25.6574 4.25833 26.1243 4.69309 26.7426 4.91881C27.3668 5.14659 28.0084 5.11501 28.5741 5.08684C28.8895 5.07126 29.3659 5.0476 29.4983 5.1243C29.6327 5.20196 29.8508 5.6277 29.995 5.90934C30.2529 6.41315 30.5452 6.98409 31.0531 7.40997C31.5596 7.83448 32.1717 8.02219 32.7116 8.18762C33.0149 8.28073 33.4732 8.42128 33.5743 8.54145C33.6721 8.6578 33.7309 9.12825 33.7698 9.43942C33.8403 10.0022 33.92 10.6401 34.254 11.2185C34.5815 11.7859 35.0889 12.1696 35.5367 12.5081C35.7915 12.7007 36.1769 12.9919 36.2324 13.1452C36.282 13.282 36.1728 13.7566 36.1076 14.0401C35.9794 14.5971 35.834 15.2286 35.9517 15.8957C36.0692 16.5622 36.4215 17.1056 36.7323 17.5848C36.9152 17.867 37.1225 18.1868 37.154 18.3652C37.18 18.5129 36.892 18.9567 36.7198 19.2221C36.4155 19.691 36.0705 20.2223 35.956 20.8714C35.8398 21.5295 35.983 22.1563 36.1095 22.7093C36.1795 23.0149 36.2849 23.4769 36.2328 23.6196C36.1791 23.7667 35.7967 24.0555 35.5435 24.2466C35.0926 24.587 34.5817 24.9729 34.2507 25.5453C33.919 26.1192 33.8396 26.7558 33.7696 27.3176C33.7303 27.6315 33.6711 28.1059 33.5716 28.2246C33.4732 28.342 33.0175 28.4828 32.7159 28.5759C32.1745 28.7433 31.5609 28.9328 31.0521 29.3603C30.5481 29.7841 30.2581 30.3523 30.0023 30.8538C29.8576 31.1371 29.6392 31.5653 29.5007 31.6453C29.3724 31.7194 28.8771 31.6948 28.5811 31.68C28.0141 31.652 27.3706 31.62 26.7465 31.8463C26.1325 32.069 25.6676 32.501 25.2576 32.882C25.0085 33.1136 24.6672 33.431 24.5021 33.4601C24.3378 33.49 23.908 33.3079 23.5948 33.1754C23.0798 32.9576 22.4966 32.7111 21.8446 32.7111C21.8436 32.7111 21.8425 32.7111 21.8417 32.7111C21.1776 32.712 20.5841 32.962 20.0605 33.1825C19.7878 33.2975 19.3317 33.4903 19.185 33.4645C19.0276 33.4367 18.6757 33.109 18.4429 32.8923C18.0308 32.5085 17.5638 32.0738 16.9452 31.8478C16.5337 31.6975 16.1147 31.6602 15.7145 31.6602C15.5079 31.6602 15.3065 31.67 15.1136 31.6797C14.7985 31.695 14.3222 31.7187 14.1893 31.6421C14.0549 31.5645 13.8369 31.1389 13.6927 30.8572C13.4347 30.3534 13.1425 29.7826 12.6346 29.3569C12.1278 28.9321 11.5157 28.7444 10.9755 28.5787C10.6724 28.4857 10.2146 28.3453 10.1134 28.2251C10.0158 28.109 9.95686 27.6386 9.91789 27.3272C9.84748 26.7641 9.7675 26.1261 9.43363 25.548C9.10565 24.9802 8.59828 24.5966 8.15053 24.2582ZM32.4847 31.0649C32.5554 31.0056 32.6684 30.9499 32.8001 30.8972L35.4165 36.9714L31.8623 36.2435C31.4134 36.1513 30.9549 36.3491 30.7135 36.7383L28.8007 39.8209L26.5883 34.6843C26.652 34.6262 26.7137 34.5689 26.7735 34.5132C27.0281 34.2766 27.3169 34.0082 27.5055 33.9398C27.7077 33.8666 28.1128 33.8868 28.4705 33.9043C29.149 33.9379 29.9174 33.9762 30.6141 33.5738C31.323 33.1645 31.6904 32.4447 31.9855 31.8664C32.1449 31.5531 32.3261 31.1982 32.4847 31.0649ZM14.8441 41.5771L13.0213 38.4402C12.791 38.0443 12.3388 37.8341 11.8873 37.9123L8.3135 38.5369L11.555 31.5746C11.608 31.6728 11.6602 31.7742 11.7104 31.8721C12.0205 32.4776 12.3719 33.1638 13.0747 33.5701C13.776 33.9752 14.545 33.9371 15.2233 33.9037C15.5782 33.8861 15.9804 33.8663 16.181 33.9396C16.3761 34.0108 16.6678 34.2824 16.925 34.522C17.1771 34.7567 17.4623 35.0214 17.7945 35.2399L14.8441 41.5771ZM22.9373 66.7188V35.3144C23.4324 35.5188 24.0115 35.724 24.6362 35.6824L27.6204 42.6109C27.7816 42.985 28.1373 43.2388 28.5438 43.2688C28.571 43.271 28.598 43.2718 28.6253 43.2718C29.0015 43.2718 29.354 43.0777 29.5544 42.7548L32.1702 38.5393L37.0304 39.5346C37.4295 39.6171 37.8411 39.4696 38.0984 39.1536C38.3379 38.8592 38.4039 38.464 38.282 38.1085H55.8621C56.4661 38.1085 56.9558 37.6188 56.9558 37.0148C56.9558 36.4107 56.4661 35.921 55.8621 35.921H37.3457L35.0772 30.6538H55.862C56.466 30.6538 56.9557 30.1641 56.9557 29.56C56.9557 28.956 56.466 28.4663 55.862 28.4663H35.8373C35.9061 28.1708 35.9435 27.8743 35.9787 27.5932C36.0226 27.2414 36.0723 26.8428 36.178 26.6597C36.283 26.4781 36.6025 26.2368 36.8846 26.024C37.4286 25.6132 38.045 25.148 38.3241 24.3831C38.4708 23.9812 38.4917 23.5828 38.457 23.1989H48.7245C49.3286 23.1989 49.8183 22.7092 49.8183 22.1052C49.8183 21.5012 49.3286 21.0114 48.7245 21.0114H38.2405C38.3287 20.8334 38.4629 20.6259 38.5871 20.4343C39.0049 19.7907 39.5247 18.9898 39.3465 17.9786C39.2365 17.3549 38.8986 16.8336 38.6003 16.3737C38.3952 16.0574 38.1831 15.7303 38.1442 15.5089C38.1051 15.2873 38.1926 14.9072 38.2772 14.5394C38.3518 14.215 38.4313 13.8691 38.4594 13.5109H56.5656V19.3418C56.5656 19.9458 57.0554 20.4356 57.6594 20.4356H63.4903V66.7188H22.9373ZM56.9557 44.47C56.9557 45.0741 56.466 45.5638 55.862 45.5638H30.5656C29.9615 45.5638 29.4718 45.0741 29.4718 44.47C29.4718 43.866 29.9615 43.3763 30.5656 43.3763H55.862C56.466 43.3763 56.9557 43.866 56.9557 44.47ZM56.9557 51.9249C56.9557 52.5289 56.466 53.0187 55.862 53.0187H30.5656C29.9615 53.0187 29.4718 52.5289 29.4718 51.9249C29.4718 51.3209 29.9615 50.8312 30.5656 50.8312H55.862C56.466 50.8312 56.9557 51.3209 56.9557 51.9249ZM56.9557 59.3798C56.9557 59.9838 56.466 60.4735 55.862 60.4735H30.5656C29.9615 60.4735 29.4718 59.9838 29.4718 59.3798C29.4718 58.7757 29.9615 58.286 30.5656 58.286H55.862C56.466 58.286 56.9557 58.7757 56.9557 59.3798ZM21.8436 30.6701C28.6186 30.6701 34.1302 25.1582 34.1302 18.3833C34.1302 11.6083 28.6186 6.09665 21.8436 6.09665C15.0686 6.09665 9.55695 11.6083 9.55695 18.3833C9.55695 25.1582 15.0686 30.6701 21.8436 30.6701ZM21.8436 8.28415C27.4123 8.28415 31.9427 12.8146 31.9427 18.3833C31.9427 23.952 27.4123 28.4826 21.8436 28.4826C16.2749 28.4826 11.7445 23.952 11.7445 18.3833C11.7445 12.8146 16.2748 8.28415 21.8436 8.28415ZM16.5143 23.8393C16.4085 24.2708 16.5742 24.7233 16.9336 24.9845C17.2929 25.2456 17.7747 25.2637 18.1523 25.0295L21.8435 22.7434L25.5346 25.0295C25.7114 25.1391 25.9111 25.1934 26.1103 25.1934C26.3366 25.1934 26.5623 25.1232 26.7533 24.9845C27.1127 24.7233 27.2786 24.2708 27.1726 23.8393L26.1389 19.6225L29.4538 16.8184C29.7928 16.5314 29.9248 16.068 29.7875 15.6455C29.6502 15.2229 29.271 14.9254 28.8279 14.8926L24.498 14.5725L22.8556 10.5535C22.6876 10.1423 22.2875 9.8735 21.8432 9.8735C21.3988 9.8735 20.9987 10.1423 20.8308 10.5535L19.1884 14.5725L14.8584 14.8926C14.4154 14.9254 14.036 15.2229 13.8987 15.6455C13.7615 16.068 13.8934 16.5316 14.2326 16.8185L17.5475 19.6225L16.5143 23.8393ZM20.0256 16.7044C20.4395 16.6738 20.8004 16.4114 20.9574 16.0273L21.8435 13.8589L22.7295 16.0273C22.8865 16.4115 23.2474 16.6739 23.6613 16.7044L25.9975 16.8771L24.209 18.39C23.8922 18.658 23.7544 19.0822 23.8531 19.4854L24.4108 21.7607L22.4192 20.5273C22.0664 20.3086 21.6202 20.3086 21.2675 20.5273L19.2759 21.7607L19.8336 19.4854C19.9325 19.0823 19.7946 18.658 19.4775 18.3898L17.689 16.8771L20.0256 16.7044Z" fill="white"/>
</svg>
