<svg width="70" height="70" viewBox="0 0 70 70" fill="none" xmlns="http://www.w3.org/2000/svg">
<path d="M66.3837 24.802L35.622 3.3413C35.246 3.07894 34.7464 3.07894 34.3704 3.3413L3.60873 24.802C3.21689 25.0753 3.04777 25.5714 3.19105 26.027C3.33433 26.4827 3.75679 26.7928 4.23449 26.7928H10.552V65.7618C10.552 66.3658 11.0417 66.8555 11.6457 66.8555H58.3465C58.9506 66.8555 59.4403 66.3658 59.4403 65.7618V26.7928H65.7579C66.2356 26.7928 66.6581 26.4827 66.8014 26.027C66.9446 25.5714 66.7755 25.0753 66.3837 24.802ZM21.6095 29.6437H23.5751V32.5169H21.6095V29.6437ZM20.5158 34.7044H24.6689C25.2729 34.7044 25.7626 34.2147 25.7626 33.6107V29.6437H27.7005V39.8601H17.484V29.6437H19.422V33.6107C19.422 34.2149 19.9116 34.7044 20.5158 34.7044ZM34.0133 29.6437H35.9789V32.5169H34.0133V29.6437ZM32.9196 34.7044H37.0727C37.6767 34.7044 38.1664 34.2147 38.1664 33.6107V29.6437H40.1043V39.8601H29.8878V29.6437H31.8257V33.6107C31.8258 34.2149 32.3156 34.7044 32.9196 34.7044ZM46.4173 42.0476H48.3829V44.9209H46.4173V42.0476ZM45.3235 47.1083H49.4766C50.0807 47.1083 50.5704 46.6185 50.5704 46.0145V42.0475H52.5082V52.2641H42.2918V42.0475H44.2296V46.0145C44.2298 46.6185 44.7195 47.1083 45.3235 47.1083ZM34.0133 42.0476H35.9789V44.9209H34.0133V42.0476ZM32.9196 47.1083H37.0727C37.6767 47.1083 38.1664 46.6185 38.1664 46.0145V42.0475H40.1043V52.2641H29.8878V42.0475H31.8257V46.0145C31.8258 46.6185 32.3156 47.1083 32.9196 47.1083ZM34.0133 54.4516H35.9789V57.3248H34.0133V54.4516ZM31.8258 54.4516V58.4186C31.8258 59.0226 32.3156 59.5123 32.9196 59.5123H37.0727C37.6767 59.5123 38.1664 59.0226 38.1664 58.4186V54.4516H40.1043V64.668H29.8878V54.4516H31.8258ZM42.2919 54.4516H44.2298V58.4186C44.2298 59.0226 44.7195 59.5123 45.3235 59.5123H49.4766C50.0807 59.5123 50.5704 59.0226 50.5704 58.4186V54.4516H52.5082V64.668H42.2918V54.4516H42.2919ZM46.4173 54.4516H48.3829V57.3248H46.4173V54.4516ZM21.6095 42.0476H23.5751V44.9209H21.6095V42.0476ZM17.484 42.0476H19.422V46.0146C19.422 46.6187 19.9118 47.1084 20.5158 47.1084H24.6689C25.2729 47.1084 25.7626 46.6187 25.7626 46.0146V42.0476H27.7005V52.2642H17.484V42.0476ZM21.6095 54.4516H23.5751V57.3248H21.6095V54.4516ZM17.484 54.4516H19.422V58.4186C19.422 59.0226 19.9118 59.5123 20.5158 59.5123H24.6689C25.2729 59.5123 25.7626 59.0226 25.7626 58.4186V54.4516H27.7005V64.668H17.484V54.4516ZM58.3467 24.6053C57.7426 24.6053 57.2529 25.095 57.2529 25.6991V64.668H54.6959V40.9539C54.6959 40.3498 54.2061 39.8601 53.6021 39.8601H42.2919V28.5499C42.2919 27.9459 41.8022 27.4562 41.1982 27.4562H16.3903C15.7863 27.4562 15.2965 27.9459 15.2965 28.5499V64.668H12.7395V25.6991C12.7395 25.095 12.2498 24.6053 11.6457 24.6053H7.71371L34.9962 5.57187L62.2786 24.6053H58.3467ZM31.3442 14.3495V19.4661C31.3442 20.0701 31.8339 20.5598 32.4379 20.5598H37.5545C38.1585 20.5598 38.6482 20.0701 38.6482 19.4661V14.3495C38.6482 13.7455 38.1585 13.2557 37.5545 13.2557H32.4379C31.8339 13.2557 31.3442 13.7455 31.3442 14.3495ZM33.5317 15.4432H36.4607V18.3723H33.5317V15.4432Z" fill="white"/>
</svg>
