<svg width="70" height="70" viewBox="0 0 70 70" fill="none" xmlns="http://www.w3.org/2000/svg">
<path d="M69.6814 33.1233L64.2578 20.3531C63.5608 18.7115 61.9526 17.6919 60.0605 17.6919H46.0443V12.7451C46.0443 10.6343 44.327 8.91699 42.2162 8.91699H3.82799C1.71732 8.91699 0 10.6343 0 12.7451V49.7966C0 51.9074 1.71732 53.6247 3.82799 53.6247H9.11244C9.65139 57.8253 13.2472 61.0829 17.592 61.0829C21.9367 61.0829 25.5325 57.8253 26.0714 53.6247H48.4488C48.9877 57.8253 52.5835 61.0829 56.9282 61.0829C61.273 61.0829 64.8688 57.8253 65.4078 53.6247H66.8555C68.5895 53.6247 70 52.214 70 50.4802V34.6804C70 34.1303 69.8988 33.6356 69.6814 33.1233ZM66.9106 32.1949H51.1431V24.4534H63.6226L66.9106 32.1949ZM2.1875 49.7966V12.7451C2.1875 11.8404 2.92346 11.1045 3.82799 11.1045H42.2162C43.1208 11.1045 43.8568 11.8404 43.8568 12.7451V18.7856V51.4372H26.0716C25.5326 47.2367 21.9368 43.9791 17.5921 43.9791C13.2474 43.9791 9.65152 47.2367 9.11258 51.4372H3.82799C2.92346 51.4372 2.1875 50.7013 2.1875 49.7966ZM17.5921 58.8954C14.0827 58.8954 11.2276 56.0403 11.2276 52.531C11.2276 49.0217 14.0827 46.1666 17.5921 46.1666C21.1014 46.1666 23.9565 49.0215 23.9565 52.531C23.9565 56.0404 21.1014 58.8954 17.5921 58.8954ZM56.9285 58.8954C53.4192 58.8954 50.5641 56.0403 50.5641 52.531C50.5641 49.0217 53.4192 46.1666 56.9285 46.1666C60.4379 46.1666 63.293 49.0215 63.293 52.531C63.293 56.0404 60.4379 58.8954 56.9285 58.8954ZM66.8555 51.4372H65.408C64.8691 47.2367 61.2732 43.9791 56.9285 43.9791C52.5838 43.9791 48.988 47.2367 48.449 51.4372H46.0444V19.8792H60.0605C61.0597 19.8792 61.8964 20.3884 62.2445 21.208L62.6937 22.2658H50.0494C49.4454 22.2658 48.9557 22.7555 48.9557 23.3595V33.2886C48.9557 33.8926 49.4454 34.3824 50.0494 34.3824H67.7875C67.8033 34.4771 67.8126 34.5738 67.8126 34.6804V41.4865H66.1299C65.5259 41.4865 65.0361 41.9763 65.0361 42.5803C65.0361 43.1843 65.5259 43.674 66.1299 43.674H67.8125V50.4802C67.8125 51.0078 67.3832 51.4372 66.8555 51.4372ZM56.9285 48.5103C54.7116 48.5103 52.908 50.3139 52.908 52.531C52.908 54.748 54.7116 56.5516 56.9285 56.5516C59.1455 56.5516 60.9491 54.748 60.9491 52.531C60.9491 50.3139 59.1454 48.5103 56.9285 48.5103ZM56.9285 54.3641C55.9177 54.3641 55.0955 53.5417 55.0955 52.531C55.0955 51.5202 55.9178 50.6978 56.9285 50.6978C57.9394 50.6978 58.7616 51.5202 58.7616 52.531C58.7616 53.5417 57.9392 54.3641 56.9285 54.3641ZM17.5921 48.5103C15.3751 48.5103 13.5715 50.3139 13.5715 52.531C13.5715 54.748 15.3751 56.5516 17.5921 56.5516C19.809 56.5516 21.6126 54.748 21.6126 52.531C21.6126 50.3139 19.809 48.5103 17.5921 48.5103ZM17.5921 54.3641C16.5812 54.3641 15.759 53.5417 15.759 52.531C15.759 51.5202 16.5814 50.6978 17.5921 50.6978C18.6029 50.6978 19.4251 51.5202 19.4251 52.531C19.4251 53.5417 18.6028 54.3641 17.5921 54.3641ZM30.0531 31.8134C30.0531 32.4174 29.5634 32.9072 28.9594 32.9072H11.1688C10.5648 32.9072 10.0751 32.4174 10.0751 31.8134C10.0751 31.2094 10.5648 30.7197 11.1688 30.7197H28.9594C29.5634 30.7197 30.0531 31.2093 30.0531 31.8134ZM8.40027 19.936C7.79625 19.936 7.30652 19.4462 7.30652 18.8422C7.30652 18.2382 7.79625 17.7485 8.40027 17.7485H26.1908C26.7948 17.7485 27.2846 18.2382 27.2846 18.8422C27.2846 19.4462 26.7948 19.936 26.1908 19.936H8.40027ZM15.168 24.234H32.9585C33.5625 24.234 34.0523 24.7237 34.0523 25.3278C34.0523 25.9318 33.5625 26.4215 32.9585 26.4215H15.168C14.564 26.4215 14.0742 25.9318 14.0742 25.3278C14.0742 24.7237 14.564 24.234 15.168 24.234Z" fill="white"/>
</svg>
