<svg width="33" height="33" viewBox="0 0 33 33" fill="none" xmlns="http://www.w3.org/2000/svg">
<g clip-path="url(#clip0_7658_2175)">
<path d="M29.8303 5.26221H3.66513C2.12981 5.26221 0.875 6.5115 0.875 8.05233V24.7931C0.875 26.3345 2.13062 27.5832 3.66513 27.5832H29.8303C31.3656 27.5832 32.6205 26.3339 32.6205 24.7931V8.05233C32.6205 6.51113 31.365 5.26221 29.8303 5.26221ZM29.4019 7.12229C28.4998 8.02735 17.9038 18.6579 17.4684 19.0947C17.1049 19.4594 16.3908 19.4596 16.027 19.0947L4.09357 7.12229H29.4019ZM2.73509 24.4512V8.39428L10.7375 16.4227L2.73509 24.4512ZM4.09357 25.7231L12.0506 17.7402L14.7096 20.4078C15.7993 21.501 17.6966 21.5006 18.7859 20.4078L21.4449 17.7402L29.4019 25.7231H4.09357ZM30.7604 24.4512L22.758 16.4227L30.7604 8.39428V24.4512Z" fill="#4F9C34"/>
</g>
<defs>
<clipPath id="clip0_7658_2175">
<rect width="31.7455" height="31.7455" fill="white" transform="translate(0.875 0.549805)"/>
</clipPath>
</defs>
</svg>
