<svg width="33" height="33" viewBox="0 0 33 33" fill="none" xmlns="http://www.w3.org/2000/svg">
<path d="M24.1412 21.6362C23.8647 21.3588 23.5361 21.1386 23.1744 20.9884C22.8126 20.8382 22.4248 20.7609 22.0331 20.7609C21.6414 20.7609 21.2535 20.8382 20.8918 20.9884C20.53 21.1386 20.2015 21.3588 19.925 21.6362L18.4865 23.0747C16.8669 22.0468 15.3664 20.8423 14.0124 19.4835C12.6564 18.1269 11.4522 16.6267 10.4212 15.0094L11.8597 13.5709C12.1371 13.2944 12.3573 12.9659 12.5075 12.6041C12.6577 12.2423 12.735 11.8545 12.735 11.4628C12.735 11.0711 12.6577 10.6832 12.5075 10.3215C12.3573 9.95973 12.1371 9.63119 11.8597 9.3547L9.05217 6.55713C8.77958 6.27875 8.45381 6.05802 8.09422 5.90805C7.73463 5.75808 7.34856 5.68193 6.95895 5.68413C6.56658 5.68317 6.17789 5.7598 5.81525 5.90963C5.45261 6.05945 5.12317 6.27951 4.84589 6.55713L3.49671 7.89639C2.85364 8.58781 2.37369 9.41456 2.09214 10.3159C1.81059 11.2172 1.7346 12.1701 1.86976 13.1046C2.18721 16.8248 4.62764 21.2989 8.3875 25.0687C12.1473 28.8385 16.6711 31.269 20.3912 31.6261C20.6688 31.641 20.947 31.641 21.2246 31.6261C22.0254 31.6597 22.8248 31.5331 23.5761 31.2538C24.3273 30.9744 25.0152 30.5479 25.5995 29.9992L26.9387 28.65C27.2164 28.3727 27.4364 28.0433 27.5862 27.6806C27.7361 27.318 27.8127 26.9293 27.8117 26.5369C27.8139 26.1473 27.7378 25.7612 27.5878 25.4017C27.4379 25.0421 27.2171 24.7163 26.9387 24.4437L24.1412 21.6362ZM25.54 27.2512L24.1908 28.5905C23.6919 29.0062 23.1096 29.3099 22.4832 29.4811C21.8567 29.6522 21.2008 29.6868 20.5599 29.5825C17.3357 29.3047 13.2287 27.023 9.83588 23.6302C6.44309 20.2374 4.16138 16.1601 3.85385 12.936C3.74687 12.295 3.78016 11.6385 3.95142 11.0117C4.12269 10.3848 4.42786 9.80259 4.84589 9.30509L6.24468 7.95591C6.33738 7.86397 6.44731 7.79123 6.56818 7.74186C6.68905 7.69249 6.81847 7.66746 6.94903 7.66822C7.07959 7.66746 7.20902 7.69249 7.32988 7.74186C7.45075 7.79123 7.56069 7.86397 7.65338 7.95591L10.4609 10.7932C10.6456 10.979 10.7494 11.2305 10.7494 11.4926C10.7494 11.7546 10.6456 12.0061 10.4609 12.1919L8.47678 14.176C8.32152 14.3305 8.22176 14.5321 8.19305 14.7492C8.16433 14.9663 8.20829 15.1869 8.31805 15.3764C9.50592 17.3986 10.9497 19.2592 12.6136 20.912C14.2664 22.576 16.127 24.0197 18.1492 25.2076C18.3388 25.3174 18.5593 25.3613 18.7764 25.3326C18.9936 25.3039 19.1951 25.2041 19.3496 25.0489L21.3337 23.0648C21.5196 22.88 21.771 22.7763 22.0331 22.7763C22.2952 22.7763 22.5466 22.88 22.7325 23.0648L25.54 25.8723C25.6319 25.965 25.7047 26.0749 25.754 26.1958C25.8034 26.3166 25.8284 26.446 25.8277 26.5766C25.8214 26.83 25.7185 27.0713 25.54 27.2512Z" fill="#4F9C34"/>
<path d="M27.2655 6.21986C25.8869 4.83592 24.2479 3.73859 22.443 2.99113C20.6382 2.24366 18.7033 1.86086 16.7499 1.86478C16.4868 1.86478 16.2344 1.96929 16.0484 2.15534C15.8623 2.34138 15.7578 2.59371 15.7578 2.85682C15.7578 3.11993 15.8623 3.37226 16.0484 3.5583C16.2344 3.74435 16.4868 3.84887 16.7499 3.84887C18.4527 3.84881 20.1387 4.18597 21.7105 4.84089C23.2823 5.49582 24.7089 6.45555 25.9079 7.66469C27.1069 8.87383 28.0546 10.3084 28.6963 11.8858C29.3379 13.4631 29.6609 15.1518 29.6464 16.8546C29.6464 17.1177 29.751 17.37 29.937 17.5561C30.1231 17.7421 30.3754 17.8466 30.6385 17.8466C30.9016 17.8466 31.1539 17.7421 31.34 17.5561C31.526 17.37 31.6305 17.1177 31.6305 16.8546C31.6495 14.8803 31.2731 12.9223 30.5234 11.0958C29.7738 9.26936 28.666 7.61146 27.2655 6.21986Z" fill="#4F9C34"/>
<path d="M21.6181 11.8941C22.1811 12.4537 22.6265 13.1203 22.928 13.8546C23.2296 14.5889 23.3812 15.3761 23.374 16.1698C23.374 16.433 23.4785 16.6853 23.6646 16.8713C23.8506 17.0574 24.1029 17.1619 24.3661 17.1619C24.6292 17.1619 24.8815 17.0574 25.0675 16.8713C25.2536 16.6853 25.3581 16.433 25.3581 16.1698C25.3712 15.1193 25.1756 14.0766 24.7827 13.1023C24.3897 12.1279 23.8072 11.2412 23.069 10.4937C22.3307 9.74625 21.4513 9.15277 20.4819 8.74774C19.5125 8.34272 18.4724 8.1342 17.4217 8.13428C17.1586 8.13428 16.9063 8.2388 16.7203 8.42484C16.5342 8.61089 16.4297 8.86322 16.4297 9.12632C16.4297 9.38943 16.5342 9.64176 16.7203 9.82781C16.9063 10.0138 17.1586 10.1184 17.4217 10.1184C18.2035 10.1243 18.9765 10.2841 19.6966 10.5888C20.4166 10.8935 21.0695 11.337 21.6181 11.8941Z" fill="#4F9C34"/>
</svg>
