<svg width="46" height="46" viewBox="0 0 46 46" fill="none" xmlns="http://www.w3.org/2000/svg">
<path d="M23 30.1875C26.9632 30.1875 30.1875 26.9632 30.1875 23C30.1875 19.0368 26.9632 15.8125 23 15.8125C19.0368 15.8125 15.8125 19.0368 15.8125 23C15.8125 26.9632 19.0368 30.1875 23 30.1875ZM23 17.25C26.1704 17.25 28.75 19.8296 28.75 23C28.75 26.1704 26.1704 28.75 23 28.75C19.8296 28.75 17.25 26.1704 17.25 23C17.25 19.8296 19.8296 17.25 23 17.25Z" fill="white"/>
<path d="M16.3933 12.3273C16.2581 12.1922 16.0763 12.1167 15.8851 12.1167C15.6939 12.1167 15.5113 12.1922 15.3769 12.3273L12.3273 15.3769C12.1922 15.5121 12.1167 15.6946 12.1167 15.8851C12.1167 16.0756 12.1922 16.2588 12.3273 16.3933L13.6253 17.6906C13.1876 18.4611 12.8484 19.2762 12.6133 20.125H10.7812C10.3838 20.125 10.0625 20.447 10.0625 20.8438V25.1562C10.0625 25.553 10.3838 25.875 10.7812 25.875H12.6126C12.8477 26.7253 13.1862 27.5411 13.6232 28.3108L12.3266 29.6075C12.1914 29.7426 12.116 29.9252 12.116 30.1156C12.116 30.3061 12.1914 30.4894 12.3266 30.6238L15.3762 33.6734C15.6572 33.9545 16.1115 33.9545 16.3925 33.6734L17.6892 32.3775C18.4589 32.8153 19.2747 33.1538 20.125 33.3881V35.2188C20.125 35.6155 20.4463 35.9375 20.8438 35.9375H25.1562C25.5537 35.9375 25.875 35.6155 25.875 35.2188V33.3874C26.7238 33.1523 27.5389 32.8138 28.3101 32.3754L29.6075 33.6727C29.7426 33.8078 29.9244 33.8833 30.1156 33.8833C30.3068 33.8833 30.4894 33.8078 30.6238 33.6727L33.6734 30.6231C33.8086 30.4879 33.884 30.3054 33.884 30.1149C33.884 29.9244 33.8086 29.7412 33.6734 29.6068L32.3754 28.3094C32.8131 27.5389 33.1523 26.7238 33.3874 25.875H35.2188C35.6162 25.875 35.9375 25.553 35.9375 25.1562V20.8438C35.9375 20.447 35.6162 20.125 35.2188 20.125H33.3874C33.1523 19.2747 32.8138 18.4589 32.3768 17.6892L33.6734 16.3925C33.8086 16.2574 33.884 16.0748 33.884 15.8844C33.884 15.6939 33.8086 15.5106 33.6734 15.3762L30.6238 12.3266C30.3427 12.0455 29.8885 12.0455 29.6075 12.3266L28.3108 13.6225C27.5411 13.1847 26.7253 12.8462 25.875 12.6119V10.7812C25.875 10.3845 25.5537 10.0625 25.1562 10.0625H20.8438C20.4463 10.0625 20.125 10.3845 20.125 10.7812V12.6126C19.2762 12.8477 18.4611 13.1862 17.6899 13.6246L16.3933 12.3273ZM20.9976 13.8769C21.3275 13.805 21.5625 13.5125 21.5625 13.1747V11.5H24.4375V13.1747C24.4375 13.5125 24.6725 13.8043 25.0024 13.8769C26.0791 14.1127 27.0983 14.5353 28.0327 15.1347C28.3166 15.3166 28.6889 15.277 28.929 15.0377L30.1149 13.8517L32.1483 15.8851L30.9623 17.071C30.7237 17.3097 30.6827 17.6827 30.8653 17.9673C31.464 18.901 31.8873 19.9209 32.1231 20.9983C32.1957 21.3275 32.4875 21.5625 32.8253 21.5625H34.5V24.4375H32.8253C32.4875 24.4375 32.1957 24.6725 32.1231 25.0024C31.8873 26.077 31.464 27.0962 30.8638 28.0312C30.6813 28.3159 30.7222 28.6889 30.9609 28.9275L32.1483 30.1149L30.1149 32.1483L28.9283 30.9609C28.6889 30.7215 28.3159 30.682 28.032 30.8638C27.0962 31.464 26.077 31.8881 25.0024 32.1224C24.6725 32.195 24.4375 32.4875 24.4375 32.8253V34.5H21.5625V32.8253C21.5625 32.4875 21.3275 32.1957 20.9976 32.1231C19.9209 31.8873 18.9017 31.4647 17.9673 30.8653C17.6827 30.6827 17.3104 30.7222 17.071 30.9623L15.8851 32.1483L13.8517 30.1149L15.0377 28.929C15.2763 28.6903 15.3173 28.3173 15.1347 28.0327C14.536 27.099 14.1127 26.0791 13.8769 25.0017C13.8043 24.6725 13.5125 24.4375 13.1747 24.4375H11.5V21.5625H13.1747C13.5125 21.5625 13.8043 21.3275 13.8769 20.9976C14.1127 19.923 14.536 18.9038 15.1362 17.9688C15.3187 17.6841 15.2778 17.3111 15.0391 17.0725L13.8517 15.8851L15.8851 13.8517L17.0718 15.0391C17.3118 15.2792 17.6848 15.318 17.968 15.1362C18.9038 14.5353 19.923 14.1119 20.9976 13.8769Z" fill="white"/>
<path d="M23 5.75C24.1888 5.75 25.1562 4.78256 25.1562 3.59375C25.1562 2.40494 24.1888 1.4375 23 1.4375C21.8112 1.4375 20.8438 2.40494 20.8438 3.59375C20.8438 4.78256 21.8112 5.75 23 5.75ZM23 2.875C23.3967 2.875 23.7188 3.19772 23.7188 3.59375C23.7188 3.98978 23.3967 4.3125 23 4.3125C22.6033 4.3125 22.2812 3.98978 22.2812 3.59375C22.2812 3.19772 22.6033 2.875 23 2.875Z" fill="white"/>
<path d="M23 40.25C21.8112 40.25 20.8438 41.2174 20.8438 42.4062C20.8438 43.5951 21.8112 44.5625 23 44.5625C24.1888 44.5625 25.1562 43.5951 25.1562 42.4062C25.1562 41.2174 24.1888 40.25 23 40.25ZM23 43.125C22.6033 43.125 22.2812 42.8023 22.2812 42.4062C22.2812 42.0102 22.6033 41.6875 23 41.6875C23.3967 41.6875 23.7188 42.0102 23.7188 42.4062C23.7188 42.8023 23.3967 43.125 23 43.125Z" fill="white"/>
<path d="M42.4062 20.8438C41.2174 20.8438 40.25 21.8112 40.25 23C40.25 24.1888 41.2174 25.1562 42.4062 25.1562C43.5951 25.1562 44.5625 24.1888 44.5625 23C44.5625 21.8112 43.5951 20.8438 42.4062 20.8438ZM42.4062 23.7188C42.0095 23.7188 41.6875 23.396 41.6875 23C41.6875 22.604 42.0095 22.2812 42.4062 22.2812C42.803 22.2812 43.125 22.604 43.125 23C43.125 23.396 42.803 23.7188 42.4062 23.7188Z" fill="white"/>
<path d="M3.59375 25.1562C4.78256 25.1562 5.75 24.1888 5.75 23C5.75 21.8112 4.78256 20.8438 3.59375 20.8438C2.40494 20.8438 1.4375 21.8112 1.4375 23C1.4375 24.1888 2.40494 25.1562 3.59375 25.1562ZM3.59375 22.2812C3.9905 22.2812 4.3125 22.604 4.3125 23C4.3125 23.396 3.9905 23.7188 3.59375 23.7188C3.197 23.7188 2.875 23.396 2.875 23C2.875 22.604 3.197 22.2812 3.59375 22.2812Z" fill="white"/>
<path d="M13.9238 6.67292L14.4104 8.13342C14.4888 8.36988 14.6843 8.54813 14.9272 8.60563C14.9825 8.61857 15.0379 8.62504 15.0925 8.62504C15.2808 8.62504 15.4648 8.55101 15.6007 8.41445L19.1944 4.8207C19.387 4.62807 19.4539 4.34345 19.3676 4.08542C19.2821 3.82738 19.0571 3.63979 18.7876 3.6017L13.7563 2.88295C13.5062 2.84701 13.2618 2.9426 13.103 3.13379C12.9427 3.32498 12.8938 3.58517 12.9729 3.82163L13.4624 5.29004C8.14291 8.1636 4.32994 13.3422 3.21875 19.274L4.63109 19.5385C5.64813 14.1134 9.09813 9.36463 13.9238 6.67292ZM17.1618 4.8207L15.4073 6.57588L14.7044 4.46995L17.1618 4.8207Z" fill="white"/>
<path d="M42.7826 26.7266L41.3702 26.4614C40.351 31.8909 36.9003 36.6404 32.0754 39.3278L31.588 37.8665C31.5097 37.6301 31.3142 37.4518 31.0713 37.3943C30.829 37.3361 30.5746 37.4094 30.3978 37.5855L26.804 41.1793C26.6114 41.3719 26.5446 41.6565 26.6308 41.9145C26.7164 42.1726 26.9413 42.3602 27.2109 42.3983L32.2421 43.117C32.2773 43.1228 32.3111 43.1249 32.3449 43.1249C32.5562 43.1249 32.7589 43.0315 32.8969 42.8669C33.0572 42.6757 33.106 42.4155 33.027 42.179L32.5375 40.7106C37.8555 37.8407 41.6692 32.6621 42.7826 26.7266ZM28.8381 41.1793L30.5926 39.4241L31.2955 41.53L28.8381 41.1793Z" fill="white"/>
<path d="M39.3273 13.9243L37.8653 14.4116C37.6289 14.4906 37.4506 14.6861 37.3931 14.9284C37.3363 15.1706 37.4082 15.4257 37.585 15.6018L41.1788 19.1956C41.3153 19.3329 41.4993 19.4062 41.6869 19.4062C41.7624 19.4062 41.84 19.394 41.9141 19.3695C42.1721 19.2833 42.3597 19.059 42.3985 18.7895L43.1173 13.7582C43.1525 13.5117 43.0576 13.2637 42.8657 13.1049C42.6738 12.9453 42.4136 12.8979 42.1778 12.9748L40.7102 13.4643C37.8481 8.14768 32.6695 4.33471 26.7262 3.21777L26.4609 4.63084C31.8976 5.65218 36.6463 9.1029 39.3273 13.9243ZM41.1788 17.163L39.4243 15.4078L41.5303 14.7056L41.1788 17.163Z" fill="white"/>
<path d="M8.60636 31.0715C8.66314 30.8293 8.59127 30.5741 8.41445 30.398L4.8207 26.8043C4.62808 26.6109 4.34417 26.5441 4.08542 26.6303C3.82739 26.7166 3.6398 26.9408 3.60098 27.2104L2.88223 32.2416C2.84702 32.4881 2.94189 32.7361 3.1338 32.8949C3.26461 33.0049 3.42848 33.0624 3.5938 33.0624C3.66998 33.0624 3.74689 33.0502 3.82092 33.0258L5.28861 32.5363C8.15498 37.8601 13.3343 41.673 19.274 42.7821L19.5378 41.369C14.1041 40.3549 9.3553 36.9041 6.67148 32.0749L8.13342 31.5875C8.37061 31.5092 8.54886 31.3137 8.60636 31.0715ZM4.8207 28.8369L6.57517 30.5921L4.46923 31.2943L4.8207 28.8369Z" fill="white"/>
</svg>
