<svg width="46" height="46" viewBox="0 0 46 46" fill="none" xmlns="http://www.w3.org/2000/svg">
<path d="M34.2039 19.6488C34.2039 13.4676 29.1727 8.44531 23.0004 8.44531C16.8281 8.44531 11.7969 13.4676 11.7969 19.6488C11.7969 25.8211 16.8191 30.8523 23.0004 30.8523C29.1816 30.8523 34.2039 25.8211 34.2039 19.6488ZM23.0004 29.4059C17.6187 29.4059 13.2344 25.0305 13.2344 19.6398C13.2344 14.2492 17.6187 9.88281 23.0004 9.88281C28.382 9.88281 32.7664 14.2582 32.7664 19.6488C32.7664 25.0395 28.382 29.4059 23.0004 29.4059Z" fill="white"/>
<path d="M36.7297 31.2387C37.134 31.0321 37.4934 30.7625 37.7719 30.3852C38.4996 29.3879 38.3289 28.0852 38.1672 26.8184C38.0594 26.0008 37.9516 25.1473 38.1402 24.5723C38.3109 24.0332 38.8859 23.4313 39.434 22.8563C40.2875 21.9579 41.2488 20.9426 41.2488 19.6579C41.2488 18.3731 40.2965 17.3399 39.443 16.4414C38.8949 15.8575 38.3199 15.2645 38.1492 14.7254C37.9605 14.1504 38.0684 13.2969 38.1762 12.4793C38.3379 11.2125 38.4996 9.90981 37.7809 8.91254C37.0531 7.90629 35.7504 7.66371 34.4926 7.42113C33.684 7.2684 32.8484 7.11567 32.3723 6.76528C31.8961 6.42387 31.5008 5.68715 31.1145 4.9684C30.5305 3.89028 29.8566 2.6684 28.6617 2.27309C27.5117 1.89574 26.3348 2.45278 25.1938 2.99184C24.4301 3.35121 23.6484 3.71957 23.0195 3.71957C22.3906 3.71957 21.609 3.35121 20.8453 2.99184C19.7043 2.45278 18.5273 1.89574 17.3773 2.27309C16.1734 2.65942 15.5445 3.83637 14.9246 4.9684C14.5383 5.67817 14.134 6.42387 13.6668 6.76528C13.1816 7.11567 12.3551 7.27738 11.5465 7.42113C10.2887 7.65473 8.98594 7.90629 8.2582 8.91254C7.53047 9.90981 7.70117 11.2125 7.86289 12.4793C7.9707 13.2969 8.07852 14.1504 7.88984 14.7254C7.71914 15.2645 7.14414 15.8664 6.59609 16.4414C5.74258 17.3399 4.78125 18.3551 4.78125 19.6399C4.78125 20.9247 5.75156 21.9399 6.59609 22.8383C7.14414 23.4223 7.71914 24.0153 7.88984 24.5543C8.07852 25.1293 7.9707 25.9829 7.86289 26.8004C7.70117 28.0672 7.53945 29.37 8.2582 30.3672C8.53672 30.7446 8.89609 31.0231 9.30039 31.2207L5.3832 38.0039C5.23945 38.2555 5.25742 38.57 5.43711 38.8036C5.6168 39.0371 5.91328 39.136 6.1918 39.0641L11.9777 37.5098L13.532 43.2957C13.6039 43.5743 13.8465 43.7809 14.134 43.8258C14.1699 43.8258 14.1969 43.8348 14.2238 43.8348C14.4754 43.8348 14.718 43.7 14.8438 43.4754L18.5184 37.1055C19.3 37.0157 20.0906 36.6473 20.8543 36.2879C21.618 35.9286 22.3996 35.5602 23.0285 35.5602C23.6574 35.5602 24.4391 35.9286 25.2027 36.2879C25.9664 36.6473 26.757 37.0247 27.5387 37.1055L31.2133 43.4754C31.3391 43.7 31.5816 43.8348 31.8332 43.8348C31.8602 43.8348 31.8961 43.8348 31.923 43.8258C32.2105 43.7899 32.4441 43.5832 32.525 43.2957L34.0793 37.5098L39.8652 39.0641C40.1437 39.136 40.4402 39.0371 40.6199 38.8036C40.7996 38.57 40.8176 38.2555 40.6738 38.0039L36.7297 31.2387ZM14.4395 41.2653L13.1547 36.4586C13.0559 36.0723 12.6605 35.8477 12.2742 35.9465L7.46758 37.2313L10.666 31.6879C10.9445 31.7508 11.232 31.8047 11.5195 31.8586C12.3281 32.0114 13.1637 32.1641 13.6398 32.5145C14.116 32.8559 14.5113 33.5926 14.8977 34.3114C15.4188 35.2727 16.0027 36.3418 16.973 36.845L14.4395 41.2653ZM23.0016 34.1317C22.0492 34.1317 21.1148 34.5719 20.2164 34.9942C19.327 35.4164 18.4105 35.8477 17.8086 35.65C17.1527 35.4344 16.6586 34.518 16.1734 33.6375C15.7063 32.784 15.2301 31.9036 14.4934 31.3645C13.7477 30.8254 12.7504 30.6368 11.7891 30.4571C10.8098 30.2684 9.79453 30.0797 9.39023 29.5407C9.00391 29.0106 9.12969 27.9864 9.25547 27.0071C9.38125 26.0278 9.50703 25.0215 9.21953 24.1321C8.94102 23.2875 8.2582 22.5598 7.60234 21.868C6.90156 21.1313 6.17383 20.3676 6.17383 19.6579C6.17383 18.9481 6.90156 18.1844 7.60234 17.4477C8.26719 16.7469 8.95 16.0282 9.21953 15.1836C9.50703 14.2942 9.38125 13.2879 9.25547 12.3086C9.12969 11.3204 9.00391 10.3051 9.39023 9.77504C9.78555 9.22699 10.8008 9.03832 11.7891 8.85863C12.7504 8.67895 13.7477 8.49027 14.4934 7.95121C15.2301 7.42113 15.7063 6.53168 16.1734 5.67817C16.6586 4.78871 17.1527 3.88129 17.8086 3.66567C18.4195 3.46801 19.3359 3.89926 20.2164 4.32153C21.1148 4.74379 22.0492 5.18403 23.0016 5.18403C23.9539 5.18403 24.8883 4.74379 25.7867 4.32153C26.6762 3.89926 27.5926 3.46801 28.1945 3.66567C28.8504 3.88129 29.3445 4.7977 29.8297 5.67817C30.2969 6.53168 30.773 7.41215 31.5098 7.95121C32.2555 8.49027 33.2527 8.67895 34.2141 8.85863C35.1934 9.04731 36.2086 9.23598 36.6129 9.77504C36.9992 10.3051 36.8734 11.3293 36.7477 12.3086C36.6219 13.2879 36.4961 14.2942 36.7836 15.1836C37.0621 16.0282 37.7449 16.7559 38.4008 17.4477C39.1016 18.1844 39.8293 18.9481 39.8293 19.6579C39.8293 20.3676 39.1016 21.1313 38.4008 21.868C37.7359 22.5688 37.0531 23.2875 36.7836 24.1321C36.4961 25.0215 36.6219 26.0278 36.7477 27.0071C36.8734 27.9954 36.9992 29.0106 36.6129 29.5407C36.2176 30.0887 35.2023 30.2774 34.2141 30.4571C33.2527 30.6368 32.2555 30.8254 31.5098 31.3645C30.773 31.8946 30.2969 32.784 29.8297 33.6375C29.3445 34.527 28.8504 35.4344 28.1945 35.65C27.5836 35.8477 26.6672 35.4164 25.7867 34.9942C24.8883 34.5719 23.9539 34.1317 23.0016 34.1317ZM33.7289 35.9465C33.3426 35.8477 32.9473 36.0723 32.8484 36.4586L31.5637 41.2653L29.0211 36.8629C29.9824 36.3688 30.5484 35.3356 31.0965 34.3293C31.4828 33.6196 31.8871 32.8739 32.3543 32.5325C32.8395 32.1821 33.666 32.0204 34.4746 31.8766C34.7621 31.8227 35.0496 31.7688 35.3281 31.7059L38.5266 37.2493L33.7289 35.9465Z" fill="white"/>
<path d="M29.739 15.2465C29.4604 14.968 29.0022 14.968 28.7237 15.2465L21.4464 22.5238L17.2866 18.3641C17.0081 18.0855 16.5499 18.0855 16.2714 18.3641C15.9929 18.6426 15.9929 19.1008 16.2714 19.3793L20.9433 24.0512C21.078 24.1859 21.2577 24.2578 21.4554 24.2578C21.653 24.2578 21.8327 24.1859 21.9675 24.0512L29.739 16.2617C30.0175 15.9832 30.0175 15.525 29.739 15.2465Z" fill="white"/>
</svg>
