<svg width="46" height="46" viewBox="0 0 46 46" fill="none" xmlns="http://www.w3.org/2000/svg">
<g clip-path="url(#clip0_7658_2266)">
<path d="M46 15.6662C45.9989 14.9679 45.7935 14.2596 45.3394 13.6758L41.6946 9.0122C41.0841 8.23703 40.1552 7.84235 39.227 7.84082C38.6745 7.84082 38.112 7.98241 37.615 8.29238L34.0611 10.5034C33.6874 10.7418 33.0466 10.9054 32.4277 10.9012C31.9468 10.9032 31.4822 10.807 31.1753 10.6554L27.6951 8.96971C27.1338 8.69946 26.508 8.58868 25.8788 8.5876C24.975 8.59182 24.0598 8.81392 23.3243 9.3236L22.9182 9.6085C22.5936 9.44651 22.0976 9.19971 21.5357 8.92011C20.8619 8.58976 20.0696 8.45652 19.2692 8.45391C18.5463 8.45598 17.8235 8.56739 17.1888 8.83548L14.8184 9.84694C14.4326 10.0142 13.819 10.1235 13.2095 10.1208C12.6 10.1234 11.9874 10.0141 11.6016 9.84694L9.22902 8.83494C8.79624 8.6504 8.33364 8.57152 7.87517 8.57098C7.34724 8.57152 6.82247 8.67556 6.33471 8.87313C5.84757 9.07177 5.39539 9.36502 5.0353 9.76743L0.715609 14.6052C0.236831 15.1398 -0.000985214 15.8131 3.06745e-06 16.4759C-0.000985214 17.2662 0.337187 18.0591 0.989452 18.6148L5.01894 22.0526L3.10743 24.0467C2.5805 24.5966 2.31815 25.3096 2.31815 26.0146C2.31716 26.7647 2.61509 27.5221 3.20518 28.0797L3.59294 28.4482C3.95834 28.7948 4.39741 29.0153 4.85687 29.1329C4.62642 29.5568 4.50046 30.0215 4.50144 30.4872C4.50046 31.2378 4.79838 31.9947 5.38739 32.553L5.38641 32.5524L5.77534 32.9225C6.32896 33.4473 7.04663 33.7086 7.7537 33.7082C8.13374 33.7087 8.51423 33.6324 8.8718 33.4829C8.99732 33.992 9.25651 34.476 9.66423 34.8628L10.0532 35.2328C10.6068 35.7576 11.3233 36.019 12.0315 36.0185C12.5851 36.0191 13.1413 35.8559 13.62 35.5392C13.7601 35.9898 14.0001 36.4168 14.3654 36.7639L14.7543 37.1339C15.3068 37.6587 16.0244 37.9201 16.7317 37.9196C17.4849 37.9201 18.2455 37.6243 18.8073 37.0378L20.4967 35.2736L22.7919 37.3979C23.3413 37.9075 24.0465 38.161 24.7426 38.1595C25.5074 38.1611 26.2788 37.8547 26.8418 37.2521L27.2082 36.8595C27.5244 36.5198 27.7309 36.1178 27.8507 35.6981L28.7398 36.5188C29.2901 37.0263 29.9943 37.2788 30.6895 37.2782C31.4552 37.2788 32.2288 36.9724 32.7923 36.3693L33.1567 35.9772C33.5774 35.5277 33.8142 34.9709 33.8874 34.4023C34.122 34.4624 34.3598 34.5032 34.5997 34.5032C35.3655 34.5032 36.137 34.1974 36.701 33.5948L37.0664 33.2027C37.5771 32.6554 37.8311 31.9534 37.8301 31.2614C37.8301 31.0466 37.7992 30.8328 37.7516 30.6216C38.3867 30.5374 39.0025 30.2541 39.4708 29.7513L39.8372 29.3588C40.3478 28.8114 40.6008 28.1095 40.6008 27.4169C40.6018 26.6548 40.2946 25.8858 39.6882 25.3256L39.003 24.6926L45.1876 17.8546C45.7429 17.239 45.999 16.4466 46 15.6662ZM5.57157 27.6779C5.24391 27.6769 4.92344 27.5597 4.67305 27.3225L4.28465 26.954C4.01593 26.6999 3.88323 26.3618 3.88215 26.0147C3.88323 25.6891 3.99976 25.3712 4.23973 25.1208L8.15476 21.0354C8.40983 20.7692 8.75016 20.636 9.09929 20.6356C9.42596 20.6361 9.74535 20.7537 9.99782 20.9915L10.3846 21.3605C10.3846 21.3605 10.785 21.9527 10.786 22.3003C10.785 22.5606 10.7066 22.8141 10.5545 23.0337C10.5415 23.0467 6.32896 27.4369 6.32896 27.4369C6.10525 27.5952 5.84075 27.6767 5.57157 27.6779ZM8.69832 31.7529C8.44379 32.018 8.104 32.1507 7.75487 32.1517C7.42721 32.1512 7.10772 32.0336 6.85634 31.7963L6.46741 31.4267L6.46642 31.4262C6.19985 31.1732 6.06598 30.834 6.06598 30.4868C6.06598 30.1612 6.18359 29.8434 6.42239 29.593C6.42239 29.593 11.6411 24.1606 11.685 24.1082C11.9344 23.8683 12.2558 23.7444 12.5877 23.7439C12.9153 23.7444 13.2348 23.8615 13.4862 24.0993L13.8751 24.4694C14.1427 24.7224 14.2755 25.0611 14.2765 25.4087C14.2755 25.7343 14.1579 26.0526 13.919 26.303L8.69832 31.7529ZM12.9755 34.0626C12.7215 34.3283 12.3818 34.4612 12.0326 34.4622C11.7049 34.4616 11.3855 34.344 11.1341 34.1062L10.7441 33.7366C10.4765 33.483 10.3426 33.1444 10.3426 32.7973C10.3426 32.5067 10.4415 32.2249 10.6306 31.9902L14.2649 28.1969C14.5101 27.9758 14.8174 27.8593 15.1358 27.8593C15.4635 27.8598 15.7829 27.9769 16.0343 28.2147L16.4243 28.5848C16.6909 28.8378 16.8248 29.1765 16.8258 29.5235C16.8247 29.8498 16.7061 30.1681 16.4682 30.4178L12.9755 34.0626ZM19.8811 33.6623L17.6758 35.9639C17.4217 36.2294 17.0815 36.3623 16.7323 36.3632C16.4047 36.3627 16.0852 36.2451 15.8338 36.0073L15.4449 35.6377C15.1783 35.3847 15.0444 35.0455 15.0434 34.6984C15.0444 34.3721 15.162 34.0538 15.401 33.8045L17.6053 31.503C17.8604 31.2375 18.2007 31.1042 18.5499 31.1036C18.8765 31.1042 19.197 31.2212 19.4484 31.4596L19.8384 31.8292C20.105 32.0822 20.2378 32.4209 20.2388 32.768C20.2376 33.0941 20.12 33.4124 19.8811 33.6623ZM39.0392 27.4189C39.0387 27.7386 38.9242 28.0517 38.6921 28.3005L38.3267 28.6926C38.0717 28.9654 37.7256 29.1034 37.3712 29.104C37.0498 29.1034 36.735 28.9905 36.4853 28.7596L30.3278 23.0652L29.2631 24.2052L35.8539 30.3109C36.1283 30.565 36.2662 30.91 36.2683 31.2623C36.2662 31.5832 36.1528 31.8958 35.9212 32.1446L35.5569 32.5367C35.3019 32.8096 34.9558 32.947 34.6014 32.9481C34.28 32.9471 33.9643 32.8336 33.7165 32.6042L27.5574 26.9099L26.4938 28.0499L31.9597 33.1045C32.2231 33.357 32.358 33.6931 32.358 34.038C32.358 34.3579 32.2446 34.671 32.013 34.9193L31.6476 35.3114C31.3936 35.5842 31.0465 35.7222 30.6912 35.7232C30.3686 35.7222 30.054 35.6087 29.8052 35.3793L24.3503 30.343H24.3493L24.3483 30.342L23.2867 31.4841L23.2878 31.4851L23.3082 31.5044L26.0403 34.026C26.2824 34.2747 26.4078 34.5936 26.4088 34.9234C26.4078 35.2417 26.2953 35.5532 26.0638 35.8016L25.6984 36.1942C25.4433 36.467 25.0983 36.6039 24.7449 36.605C24.4235 36.604 24.1088 36.4911 23.86 36.2606L21.4812 34.0579C21.6882 33.6519 21.8037 33.2112 21.8037 32.769C21.8047 32.0189 21.5068 31.2625 20.9178 30.7038L20.5278 30.3337C19.9753 29.8094 19.2586 29.5476 18.5515 29.5486C18.4966 29.5486 18.4412 29.5612 18.3874 29.5643C18.3874 29.5513 18.3905 29.5376 18.3905 29.5246C18.3915 28.7745 17.5045 27.4584 17.5045 27.4584L17.1156 27.0894C16.7021 26.6973 16.1977 26.4528 15.673 26.3545C15.7811 26.0482 15.8423 25.7293 15.8423 25.4099C15.8423 24.6598 15.5454 23.9029 14.9564 23.3448L14.5674 22.9747C14.0138 22.45 13.2973 22.1881 12.5901 22.1886C12.5075 22.1886 12.426 22.2053 12.3439 22.2127C12.3214 21.4924 12.0313 20.7727 11.4669 20.2364V20.2358L11.079 19.8674C10.5254 19.3421 9.80887 19.0802 9.10162 19.0807C8.3473 19.0802 7.58785 19.376 7.02605 19.9625L6.10192 20.9269L2.0081 17.4352C1.71386 17.1833 1.56697 16.8352 1.56589 16.4777C1.56688 16.1781 1.66885 15.8849 1.88627 15.6414L6.20587 10.8038C6.37729 10.6114 6.63083 10.4374 6.92776 10.3166C7.2247 10.1958 7.56179 10.1295 7.87696 10.1299C8.15144 10.1299 8.40902 10.1796 8.61503 10.2685L10.9865 11.2804C11.6551 11.5621 12.4312 11.6777 13.2113 11.6802C13.9922 11.6776 14.7674 11.5621 15.436 11.2804L17.8064 10.2689C18.1718 10.1096 18.7232 10.0107 19.2715 10.0128C19.8778 10.0091 20.4852 10.1346 20.8375 10.3144C21.0612 10.4257 21.2734 10.5314 21.4704 10.6301L19.0529 12.3295C18.2761 12.8758 17.8574 13.7445 17.8585 14.6211C17.8575 15.2013 18.0414 15.7919 18.4157 16.2931L18.4147 16.2921L18.734 16.7212C19.3404 17.5272 20.2859 17.9417 21.231 17.9438C21.7647 17.9438 22.3083 17.8089 22.7928 17.5182L24.2386 16.65C24.5335 16.4697 24.9787 16.3558 25.4392 16.3578C25.9802 16.3547 26.5254 16.5147 26.8531 16.7556L30.8529 19.6231C31.7431 20.2608 33.193 21.4437 33.9964 22.1881L38.626 26.4685C38.9001 26.7227 39.0381 27.0661 39.0392 27.4189ZM44.0269 16.8141L37.8594 23.6337L35.0593 21.0453C34.1822 20.2357 32.7359 19.0549 31.7658 18.3581L27.7671 15.4906C27.0892 15.0103 26.2591 14.8026 25.4385 14.7996C24.7401 14.8016 24.0365 14.9538 23.4292 15.3155L21.9845 16.1837C21.7629 16.3169 21.5016 16.385 21.2302 16.3855C20.745 16.3871 20.2595 16.1607 19.9888 15.7922L19.6705 15.3636L19.6694 15.3625C19.5 15.1342 19.4212 14.878 19.42 14.6187C19.4221 14.2266 19.6029 13.8462 19.9532 13.5989L24.2279 10.5954C24.5975 10.3279 25.2551 10.1402 25.8797 10.1449C26.3135 10.1428 26.728 10.23 27.0118 10.3702L30.4919 12.0559C31.0852 12.3408 31.7548 12.4574 32.4285 12.459C33.294 12.4547 34.169 12.2666 34.8899 11.8239L38.4449 9.61236C38.6717 9.47077 38.944 9.39754 39.2279 9.39754C39.7078 9.39655 40.1886 9.61398 40.461 9.96886L44.1057 14.6325C44.3159 14.8996 44.4376 15.2764 44.4376 15.6669C44.4382 16.1037 44.284 16.5334 44.0269 16.8141Z" fill="white"/>
</g>
<defs>
<clipPath id="clip0_7658_2266">
<rect width="46" height="46" fill="white"/>
</clipPath>
</defs>
</svg>
