<svg width="42" height="42" viewBox="0 0 42 42" fill="none" xmlns="http://www.w3.org/2000/svg">
<path d="M7.02512 38.3653H25.6828C25.602 39.0115 25.1174 39.8192 25.7636 40.6269C26.1674 41.1115 26.8944 41.3538 27.5405 41.0307L29.9636 39.8999L32.4674 41.0307C33.1136 41.273 33.7597 41.1115 34.2444 40.6269C34.4867 40.3038 34.6482 39.8192 34.5674 39.4153L33.5174 34.4076C36.4251 33.1153 38.4444 30.1268 38.4444 26.7345C38.4444 22.6153 35.4559 19.223 31.579 18.4961V4.28069C31.579 2.34223 30.0444 0.807617 28.1059 0.807617H7.10589C5.16743 0.807617 3.63281 2.34223 3.63281 4.28069V34.973C3.63281 36.8307 5.16743 38.3653 7.02512 38.3653ZM31.902 34.973L32.8713 39.4961L30.2867 38.3653C30.0444 38.2845 29.802 38.2845 29.6405 38.3653L27.1367 39.4961L28.1867 34.973C28.752 35.0538 29.479 35.2153 30.2059 35.1345C30.6905 35.1345 31.3367 35.1345 31.902 34.973ZM36.7482 26.8153C36.7482 30.5307 33.7597 33.5999 30.0444 33.5999C26.329 33.5999 23.2597 30.6115 23.2597 26.8153C23.2597 23.0999 26.329 20.0307 30.0444 20.0307C33.7597 20.0307 36.7482 23.0999 36.7482 26.8153ZM5.2482 4.28069C5.2482 3.23069 6.05589 2.423 7.02512 2.423H28.0251C29.0751 2.423 29.8828 3.23069 29.8828 4.28069V18.4153C20.9982 18.4961 18.4136 30.8538 26.652 34.4884L26.0867 36.8307H7.02512C5.97512 36.8307 5.16743 36.023 5.16743 34.973V4.28069H5.2482Z" fill="white"/>
<path d="M25.1953 26.8154C25.1953 29.4808 27.3761 31.6615 30.0415 31.6615C32.7069 31.6615 34.8876 29.4808 34.8876 26.8154C34.8876 24.15 32.7069 21.9692 30.0415 21.9692C27.3761 21.9692 25.1953 24.15 25.1953 26.8154ZM33.1915 26.8154C33.1915 28.5923 31.7376 30.0462 29.9607 30.0462C28.1838 30.0462 26.7299 28.5923 26.7299 26.8154C26.7299 25.0385 28.1838 23.5846 29.9607 23.5846C31.7376 23.5846 33.1915 25.0385 33.1915 26.8154Z" fill="white"/>
<path d="M8.79988 8.07681H24.9537C25.4383 8.07681 25.7614 7.75373 25.7614 7.26912C25.7614 6.7845 25.4383 6.46143 24.9537 6.46143H8.79988C8.31526 6.46143 7.99219 6.7845 7.99219 7.26912C7.99219 7.75373 8.39603 8.07681 8.79988 8.07681Z" fill="white"/>
<path d="M8.79988 13.0846H24.9537C25.4383 13.0846 25.7614 12.7615 25.7614 12.2769C25.7614 11.7923 25.4383 11.4692 24.9537 11.4692H8.79988C8.31526 11.4692 7.99219 11.7923 7.99219 12.2769C7.99219 12.7615 8.39603 13.0846 8.79988 13.0846Z" fill="white"/>
<path d="M8.79988 18.173H24.9537C25.4383 18.173 25.7614 17.8499 25.7614 17.3653C25.7614 16.8807 25.4383 16.5576 24.9537 16.5576H8.79988C8.31526 16.5576 7.99219 16.8807 7.99219 17.3653C7.99219 17.8499 8.39603 18.173 8.79988 18.173Z" fill="white"/>
</svg>
