<svg width="46" height="46" viewBox="0 0 46 46" fill="none" xmlns="http://www.w3.org/2000/svg">
<path d="M1.90593 18.9775C0.965686 19.13 0.238346 19.8838 0.119595 20.829C-0.0382855 22.2605 -0.0398749 23.705 0.114978 25.1369C0.222906 26.0967 0.954712 26.8682 1.90744 27.0267L4.34695 27.4261C4.81529 29.4209 5.60591 31.3261 6.68753 33.0664L5.25162 35.072C4.67944 35.8478 4.69329 36.9095 5.28538 37.6702C5.74237 38.2293 6.22865 38.764 6.74203 39.2718C7.21279 39.7433 7.73328 40.2171 8.35814 40.7422C9.11281 41.3226 10.16 41.3347 10.928 40.7721L12.9435 39.3262C14.6821 40.4077 16.5853 41.1986 18.5784 41.6676L18.9787 44.1109C19.1308 45.0515 19.8848 45.7792 20.8302 45.898C21.2672 45.9471 21.7111 45.9816 22.158 46H22.2232C22.6227 45.9997 23.007 45.846 23.2965 45.5706C23.5975 45.283 23.7673 44.8845 23.7664 44.4682V38.3242C23.7619 37.5032 23.1138 36.8302 22.2936 36.7947C14.9557 36.4116 9.20234 30.35 9.20234 23.0021C9.20234 15.6541 14.9557 9.59262 22.2936 9.2095C23.1151 9.17348 23.7635 8.49851 23.7664 7.67618V1.53527C23.7676 1.11846 23.5974 0.7196 23.2956 0.43207C22.9944 0.136517 22.5832 -0.0194712 22.1617 0.00194791C21.7156 0.0195827 21.2732 0.0517492 20.8193 0.0977661C19.8744 0.219545 19.1241 0.951729 18.9793 1.89326L18.5799 4.33428C16.5868 4.80368 14.6835 5.59475 12.9449 6.67645L10.9294 5.23358C10.1543 4.66677 9.09699 4.68364 8.34043 5.27498C7.7846 5.73 7.2526 6.21333 6.74657 6.72322C6.22502 7.23304 5.73404 7.77321 5.27614 8.34086C4.69117 9.0965 4.67618 10.1479 5.23936 10.9199L6.6845 12.9378C5.60379 14.6779 4.81423 16.5829 4.34695 18.5774L1.90593 18.9775ZM5.73389 19.4053C6.1796 17.2399 7.0347 15.1796 8.25317 13.3349C8.42777 13.0696 8.42074 12.7242 8.23553 12.4663L6.48681 10.0245C6.32515 9.81113 6.32046 9.51762 6.47531 9.29919C6.89552 8.77839 7.34638 8.28303 7.82539 7.81567C8.29071 7.34566 8.77941 6.89934 9.28968 6.47861C9.50933 6.31119 9.81373 6.31119 10.0334 6.47861L12.4714 8.22816C12.7296 8.41291 13.075 8.41927 13.34 8.24428C15.1831 7.02536 17.2423 6.16996 19.4066 5.72425C19.7177 5.66014 19.9571 5.41068 20.0085 5.09711L20.4907 2.14469C20.5253 1.87986 20.7287 1.6687 20.9921 1.62412C21.3976 1.58196 21.8086 1.55207 22.2333 1.53519L22.2164 7.67686C14.0543 8.09374 7.65147 14.8356 7.65601 23.0085C7.66047 31.1813 14.0707 37.9161 22.2333 38.324L22.2226 44.468C21.8108 44.4511 21.403 44.419 21.0005 44.3737C20.7359 44.335 20.5286 44.1265 20.4915 43.8616L20.0085 40.9076C19.9571 40.594 19.7178 40.3447 19.4066 40.2805C17.2423 39.8344 15.1831 38.9788 13.34 37.7597C13.0749 37.5849 12.7295 37.5916 12.4714 37.7766L10.0311 39.5276C9.82297 39.6895 9.53385 39.6972 9.31731 39.5468C8.75383 39.0722 8.26543 38.6268 7.82539 38.1875C7.35531 37.723 6.90929 37.2348 6.48908 36.7247C6.32371 36.5038 6.32371 36.2004 6.48908 35.9795L8.23629 33.54C8.42127 33.2819 8.428 32.9365 8.25317 32.6713C7.03463 30.827 6.17953 28.7669 5.73389 26.6017C5.66986 26.2908 5.42078 26.0515 5.10752 25.9999L2.15585 25.5161C1.88111 25.4707 1.67017 25.2478 1.6399 24.971C1.49632 23.6523 1.49783 22.3218 1.64451 21.0035C1.68266 20.7387 1.89095 20.5307 2.15585 20.493L5.10668 20.0099C5.42116 19.9585 5.67085 19.7177 5.73389 19.4053Z" fill="white"/>
<path d="M43.6988 20.7014C42.7276 20.7054 41.8636 21.319 41.5398 22.2347H23.7656V19.9347H36.0322C37.3024 19.9347 38.3321 18.905 38.3321 17.6347V13.6604C39.3882 13.287 40.0217 12.2071 39.8323 11.103C39.6428 9.99902 38.6856 9.19198 37.5654 9.19198C36.4453 9.19198 35.488 9.99902 35.2986 11.103C35.1091 12.2071 35.7426 13.287 36.7987 13.6604V17.6347C36.7987 18.0581 36.4555 18.4014 36.032 18.4014H23.7656V16.1014H32.1988C32.6222 16.1014 32.9655 15.7582 32.9655 15.3347C32.9655 14.9113 32.6222 14.568 32.1988 14.568H23.7656V13.0347H28.3656C29.6358 13.0347 30.6656 12.005 30.6656 10.7347V5.9938C31.7217 5.62045 32.3552 4.54049 32.1658 3.43646C31.9763 2.33243 31.0191 1.52539 29.8989 1.52539C28.7788 1.52539 27.8215 2.33243 27.632 3.43646C27.4426 4.54049 28.0761 5.62045 29.1322 5.9938V10.7348C29.1322 11.1582 28.789 11.5015 28.3655 11.5015H23.5632C23.2994 11.0113 22.773 10.721 22.2177 10.7594C15.7571 11.1687 10.7266 16.5279 10.7266 23.0015C10.7266 29.475 15.7571 34.8343 22.2177 35.2435H22.3074C22.8311 35.2479 23.3144 34.9622 23.5632 34.5014H28.3655C28.7889 34.5014 29.1322 34.8446 29.1322 35.2681V40.0091C28.0761 40.3825 27.4426 41.4624 27.632 42.5665C27.8215 43.6705 28.7788 44.4775 29.8989 44.4775C31.0191 44.4775 31.9763 43.6705 32.1658 42.5665C32.3552 41.4624 31.7217 40.3825 30.6656 40.0091V35.2681C30.6656 33.9978 29.6359 32.9681 28.3656 32.9681H23.7656V31.4347H32.1988C32.6222 31.4347 32.9655 31.0915 32.9655 30.6681C32.9655 30.2447 32.6222 29.9014 32.1988 29.9014H23.7656V27.6015H36.0322C36.4556 27.6015 36.7989 27.9447 36.7989 28.3681V32.3424C35.7428 32.7158 35.1093 33.7958 35.2987 34.8998C35.4882 36.0038 36.4454 36.8109 37.5656 36.8109C38.6857 36.8109 39.643 36.0038 39.8324 34.8998C40.0219 33.7958 39.3884 32.7158 38.3323 32.3424V28.3681C38.3323 27.0979 37.3026 26.0682 36.0323 26.0682H23.7656V23.768H41.5398C41.9316 24.8679 43.0863 25.4986 44.2235 25.2338C45.3606 24.9691 46.1181 23.8932 45.9838 22.7334C45.8495 21.5737 44.8662 20.6993 43.6988 20.7014ZM37.5655 10.7348C37.9889 10.7348 38.3321 11.0781 38.3321 11.5015C38.3321 11.925 37.9889 12.2682 37.5655 12.2682C37.1421 12.2682 36.7989 11.925 36.7989 11.5015C36.7989 11.0781 37.142 10.7348 37.5655 10.7348ZM29.8989 3.06825C30.3223 3.06825 30.6656 3.41148 30.6656 3.83494C30.6656 4.2584 30.3224 4.60156 29.8989 4.60156C29.4754 4.60156 29.1323 4.25833 29.1323 3.83494C29.1323 3.41156 29.4754 3.06825 29.8989 3.06825ZM29.8989 42.9345C29.4755 42.9345 29.1323 42.5913 29.1323 42.1678C29.1323 41.7444 29.4755 41.4011 29.8989 41.4011C30.3223 41.4011 30.6656 41.7444 30.6656 42.1678C30.6656 42.5913 30.3223 42.9345 29.8989 42.9345ZM37.5655 35.2679C37.1421 35.2679 36.7989 34.9247 36.7989 34.5012C36.7989 34.0778 37.1421 33.7346 37.5655 33.7346C37.9889 33.7346 38.3321 34.0778 38.3321 34.5012C38.3321 34.9246 37.9889 35.2679 37.5655 35.2679ZM12.2657 23.0014C12.2721 17.3736 16.6194 12.7041 22.2323 12.2958V33.7071C16.6194 33.2987 12.2721 28.6291 12.2657 23.0014ZM43.6988 23.768C43.2754 23.768 42.9321 23.4248 42.9321 23.0013C42.9321 22.5778 43.2753 22.2347 43.6988 22.2347C44.1222 22.2347 44.4655 22.5779 44.4655 23.0013C44.4655 23.4247 44.1222 23.768 43.6988 23.768Z" fill="white"/>
</svg>
