<svg width="46" height="46" viewBox="0 0 46 46" fill="none" xmlns="http://www.w3.org/2000/svg">
<path d="M42.0457 27.8374C42.667 26.0783 43.0087 24.1873 43.0087 22.2184C43.0087 20.2884 42.6796 18.4342 42.0816 16.7044C42.0679 16.6392 42.0462 16.5791 42.0189 16.5199C39.6744 9.98387 33.4194 5.29541 26.0877 5.29541C25.5989 5.29541 25.2031 5.69121 25.2031 6.18003V38.2607C25.2031 38.7495 25.5989 39.1453 26.0877 39.1453C26.11 39.1453 26.1312 39.1403 26.1535 39.1393C26.5093 39.1373 26.8622 39.1226 27.213 39.0988C27.3004 39.1266 27.3899 39.1453 27.4809 39.1453C27.6118 39.1453 27.7387 39.1059 27.86 39.0478C34.4092 38.3628 39.8574 33.9256 42.0144 27.931C42.0275 27.9006 42.0356 27.8693 42.0457 27.8374ZM39.9009 16.0023H34.5189C33.3679 12.0817 31.3469 9.21148 29.933 7.56003C34.3839 8.72923 38.0376 11.8775 39.9009 16.0023ZM26.9724 7.09194C27.0007 7.09396 27.0285 7.09699 27.0568 7.09901C27.1002 7.16321 27.1498 7.22438 27.2115 7.27796C27.26 7.31941 30.8667 10.4868 32.6566 16.0028H26.9724V7.09194ZM26.9724 17.7715H33.1409C33.4518 19.1399 33.6424 20.623 33.6424 22.2184C33.6424 23.8122 33.4457 25.3049 33.1252 26.6895H26.9724V17.7715ZM27.1806 37.3276C27.1109 37.3326 27.0421 37.3392 26.9724 37.3433V28.4587H32.6319C31.0562 33.2599 28.1001 36.4263 27.1806 37.3276ZM30.0124 36.8524C31.4697 35.0781 33.3881 32.2191 34.5027 28.4587H39.8893C38.0336 32.5471 34.4178 35.6696 30.0124 36.8524ZM40.5656 26.6895H34.9506C35.2407 25.3004 35.4121 23.8076 35.4121 22.2184C35.4121 20.6316 35.2448 19.148 34.9622 17.7715H40.5727C41.0054 19.1783 41.2394 20.671 41.2394 22.2184C41.2394 23.7738 41.0029 25.2756 40.5656 26.6895Z" fill="white"/>
<path d="M16.1229 40.0977H16.1239C17.6419 40.0977 19.1119 39.8232 20.503 39.2844L22.4608 41.2204C22.6331 41.3913 22.8581 41.4762 23.0825 41.4762C23.3105 41.4762 23.5385 41.3883 23.7114 41.2134C24.0551 40.8656 24.0521 40.306 23.7043 39.9623L22.3627 38.6353C22.4112 38.5256 22.4385 38.4063 22.4385 38.279V10.9838C22.4385 10.495 22.0427 10.0992 21.5539 10.0992C21.0651 10.0992 20.6693 10.495 20.6693 10.9838V19.746L15.8858 15.7177C15.5117 15.4028 14.9542 15.4513 14.6393 15.8244C14.3248 16.1985 14.3729 16.7565 14.7464 17.0714L20.5358 21.9469C20.5763 21.9813 20.6248 21.9975 20.6693 22.0238V27.4159C20.1335 26.5045 19.4859 25.6477 18.7176 24.8793C16.5288 22.6905 13.2678 20.9956 10.0736 20.2682C10.1894 14.1517 14.6959 8.59329 21.3745 6.38782C21.8385 6.23364 22.0902 5.73421 21.9371 5.27017C21.7834 4.80612 21.282 4.5554 20.8194 4.70755C13.5211 7.11876 8.55816 13.2054 8.3049 19.9674C7.80851 19.9123 7.31767 19.8805 6.83947 19.8805C5.4711 19.8805 4.24325 20.1135 3.19132 20.5735C2.9871 20.6625 2.82332 20.8263 2.73435 21.0305C0.760903 25.5587 3.46075 32.624 7.22011 36.3813C9.61767 38.7779 12.7795 40.0977 16.1229 40.0977ZM4.22708 22.0642C4.98431 21.7887 5.86134 21.6497 6.84049 21.6497C10.4017 21.6497 14.8708 23.5342 17.467 26.1314C20.2386 28.901 21.2855 32.9475 20.2821 36.577L14.291 30.6516L14.2531 26.413C14.2485 25.9272 13.8532 25.5365 13.3684 25.5365C13.3659 25.5365 13.3629 25.5365 13.3604 25.5365C12.8715 25.5415 12.4793 25.9403 12.4838 26.4292L12.5061 28.8864L9.76325 26.1734C9.41598 25.8296 8.85539 25.8327 8.51216 26.1805C8.16842 26.5282 8.17145 27.0878 8.51923 27.4316L12.7861 31.6524C12.7871 31.6534 12.7876 31.6545 12.7886 31.6545L14.384 33.2331L10.1373 32.8176C9.64194 32.7691 9.21833 33.1254 9.17082 33.6112C9.12279 34.097 9.47816 34.5302 9.96444 34.5777L16.3782 35.2056L19.0987 37.8958C18.1413 38.1819 17.146 38.329 16.1234 38.329H16.1229C13.2512 38.329 10.5341 37.1937 8.47121 35.1312C5.28508 31.9456 2.83747 25.8984 4.22708 22.0642Z" fill="white"/>
</svg>
