<svg width="33" height="33" viewBox="0 0 33 33" fill="none" xmlns="http://www.w3.org/2000/svg">
<g clip-path="url(#clip0_7658_2183)">
<path d="M16.5212 16.1645C18.622 16.1645 20.4409 15.411 21.9275 13.9244C23.4137 12.438 24.1674 10.6193 24.1674 8.51827C24.1674 6.41793 23.4139 4.59902 21.9273 3.11216C20.4407 1.62604 18.6218 0.872559 16.5212 0.872559C14.4201 0.872559 12.6015 1.62604 11.1151 3.11241C9.62872 4.59878 8.875 6.41769 8.875 8.51827C8.875 10.6193 9.62872 12.4382 11.1151 13.9246C12.6019 15.4107 14.4209 16.1645 16.5212 16.1645ZM12.4307 4.42779C13.5712 3.28727 14.9091 2.73288 16.5212 2.73288C18.133 2.73288 19.4712 3.28727 20.6119 4.42779C21.7524 5.56854 22.3071 6.90668 22.3071 8.51827C22.3071 10.1303 21.7524 11.4682 20.6119 12.609C19.4712 13.7498 18.133 14.3041 16.5212 14.3041C14.9096 14.3041 13.5717 13.7495 12.4307 12.609C11.29 11.4685 10.7353 10.1303 10.7353 8.51827C10.7353 6.90668 11.29 5.56854 12.4307 4.42779Z" fill="#4F9C34"/>
<path d="M29.8977 25.2834C29.8548 24.6648 29.7681 23.9901 29.6405 23.2775C29.5117 22.5596 29.3457 21.881 29.1471 21.2607C28.9418 20.6196 28.663 19.9865 28.3179 19.3798C27.9601 18.7501 27.5397 18.2018 27.0679 17.7506C26.5745 17.2785 25.9705 16.899 25.272 16.6222C24.5759 16.3468 23.8045 16.2073 22.9793 16.2073C22.6553 16.2073 22.3419 16.3402 21.7366 16.7343C21.3641 16.9772 20.9284 17.2582 20.4421 17.5689C20.0262 17.8339 19.4629 18.0821 18.767 18.3069C18.0881 18.5266 17.3988 18.638 16.7183 18.638C16.0382 18.638 15.3489 18.5266 14.6695 18.3069C13.9744 18.0824 13.4108 17.8341 12.9957 17.5692C12.5139 17.2613 12.078 16.9804 11.6999 16.7341C11.0951 16.34 10.7817 16.207 10.4577 16.207C9.63227 16.207 8.86111 16.3468 8.16528 16.6224C7.46726 16.8987 6.86298 17.2783 6.36913 17.7508C5.89733 18.2023 5.47688 18.7504 5.11939 19.3798C4.77474 19.9865 4.49573 20.6194 4.29035 21.261C4.09199 21.8812 3.92608 22.5596 3.79723 23.2775C3.66935 23.9891 3.58289 24.6641 3.54002 25.2841C3.49788 25.8904 3.47656 26.5213 3.47656 27.1587C3.47656 28.8159 4.00334 30.1574 5.04213 31.1468C6.06808 32.1231 7.42536 32.6181 9.07643 32.6181H24.362C26.0126 32.6181 27.3699 32.1231 28.3961 31.1468C29.4351 30.1581 29.9619 28.8161 29.9619 27.1585C29.9617 26.5189 29.9401 25.8879 29.8977 25.2834ZM27.1134 29.7989C26.4355 30.4442 25.5355 30.7578 24.3618 30.7578H9.07643C7.90249 30.7578 7.00248 30.4442 6.32481 29.7992C5.65998 29.1663 5.33689 28.3024 5.33689 27.1587C5.33689 26.5639 5.3565 25.9766 5.39574 25.4127C5.43401 24.8596 5.51224 24.2519 5.62825 23.6062C5.74281 22.9685 5.88861 22.37 6.06203 21.8282C6.22842 21.3087 6.45536 20.7943 6.73679 20.2987C7.00539 19.8264 7.31443 19.4212 7.65545 19.0948C7.97442 18.7893 8.37647 18.5394 8.85021 18.3519C9.28835 18.1785 9.78074 18.0836 10.3153 18.0693C10.3804 18.1039 10.4964 18.17 10.6844 18.2926C11.0668 18.5418 11.5076 18.8262 11.9949 19.1374C12.5442 19.4876 13.2519 19.8039 14.0974 20.0769C14.9618 20.3564 15.8434 20.4983 16.7185 20.4983C17.5936 20.4983 18.4754 20.3564 19.3393 20.0771C20.1856 19.8037 20.893 19.4876 21.4431 19.1369C21.9417 18.8182 22.3702 18.5421 22.7526 18.2926C22.9406 18.1703 23.0566 18.1039 23.1217 18.0693C23.6565 18.0836 24.1489 18.1785 24.5873 18.3519C25.0608 18.5394 25.4628 18.7896 25.7818 19.0948C26.1228 19.421 26.4319 19.8262 26.7005 20.299C26.9821 20.7943 27.2093 21.3089 27.3755 21.828C27.5491 22.3705 27.6952 22.9687 27.8095 23.6059C27.9253 24.2529 28.0037 24.8608 28.042 25.413V25.4135C28.0815 25.9751 28.1013 26.5622 28.1016 27.1587C28.1013 28.3026 27.7782 29.1663 27.1134 29.7989Z" fill="#4F9C34"/>
</g>
<defs>
<clipPath id="clip0_7658_2183">
<rect width="31.7454" height="31.7455" fill="white" transform="translate(0.875 0.872559)"/>
</clipPath>
</defs>
</svg>
